M48
;DRILL file {KiCad 5.0.2+dfsg1-1} date Tue 16 Apr 2019 07:48:08 PM EDT
;FORMAT={-:-/ absolute / inch / decimal}
FMAT,2
INCH,TZ
T1C0.0157
T2C0.0315
T3C0.0394
T4C0.0591
T5C0.0984
%
G90
G05
T1
X5.9338Y-4.5713
X6.2705Y-3.961
X6.4915Y-4.56
X7.0315Y-4.56
X7.2715Y-3.01
X7.2715Y-3.11
X7.2715Y-3.21
X7.5915Y-4.56
X7.6109Y-3.4372
X7.9232Y-4.0551
X7.9528Y-5.6988
X7.978Y-4.4806
X7.9843Y-5.4252
X7.9921Y-3.189
X8.002Y-5.6988
X8.0315Y-5.4252
X8.04Y-3.44
X8.04Y-4.0551
X8.0787Y-5.4252
X8.09Y-4.2414
X8.14Y-3.17
X8.14Y-4.24
X8.1575Y-5.4252
X8.189Y-3.0807
X8.19Y-4.24
X8.252Y-5.4252
X8.2533Y-5.1919
X8.29Y-4.2414
X8.3033Y-5.1919
X8.315Y-5.4252
X8.4016Y-5.4252
X8.55Y-3.27
X8.64Y-3.36
X8.74Y-3.16
T2
X5.7428Y-4.7513
X5.7428Y-4.9513
X5.7428Y-5.0513
X5.7428Y-5.1513
X5.9428Y-4.7513
X5.9428Y-4.9513
X5.9428Y-5.0513
X5.9428Y-5.1513
X8.6313Y-5.4439
X8.7313Y-5.4439
X7.4028Y-4.7513
X7.4028Y-4.9513
X7.4028Y-5.0513
X7.4028Y-5.1513
X7.6028Y-4.7513
X7.6028Y-4.9513
X7.6028Y-5.0513
X7.6028Y-5.1513
X6.8528Y-4.7513
X6.8528Y-4.9513
X6.8528Y-5.0513
X6.8528Y-5.1513
X7.0528Y-4.7513
X7.0528Y-4.9513
X7.0528Y-5.0513
X7.0528Y-5.1513
X5.6491Y-3.7624
X5.6491Y-3.9624
X5.7491Y-3.7624
X5.7491Y-3.9624
X5.8491Y-3.7624
X5.8491Y-3.9624
X6.0491Y-3.7624
X6.0491Y-3.9624
X6.3008Y-4.7513
X6.3008Y-4.9513
X6.3008Y-5.0513
X6.3008Y-5.1513
X6.5008Y-4.7513
X6.5008Y-4.9513
X6.5008Y-5.0513
X6.5008Y-5.1513
T3
X5.3215Y-4.8513
X5.3215Y-4.9513
X5.3215Y-5.0513
X8.1805Y-2.33
X8.2805Y-2.33
X8.3805Y-2.33
X8.4805Y-2.33
X8.9685Y-5.3622
X6.9405Y-3.01
X6.9405Y-3.11
X6.9405Y-3.21
X7.8937Y-5.835
X7.8937Y-5.935
X7.9937Y-5.835
X7.9937Y-5.935
X8.0937Y-5.835
X8.0937Y-5.935
X8.1937Y-5.835
X8.1937Y-5.935
X8.2937Y-5.835
X8.2937Y-5.935
X8.3937Y-5.835
X8.3937Y-5.935
X8.4937Y-5.835
X8.4937Y-5.935
X8.5937Y-5.835
X8.5937Y-5.935
X8.6937Y-5.835
X8.6937Y-5.935
X8.9685Y-5.2205
X5.9213Y-2.6063
X6.0213Y-2.6063
X6.1213Y-2.6063
X7.89Y-4.7326
X7.99Y-4.7326
X8.09Y-4.7326
X8.19Y-4.7326
X8.29Y-4.7326
X8.39Y-4.7326
X8.49Y-4.7326
X8.8405Y-2.91
X8.8405Y-3.01
X8.8405Y-3.11
X8.8405Y-3.21
X8.8405Y-3.31
X8.8405Y-3.41
X8.8405Y-3.51
X8.8405Y-3.61
X8.8405Y-3.71
X8.8405Y-3.81
X8.8405Y-3.91
X8.8405Y-4.01
X8.8405Y-4.11
X8.8405Y-4.21
X8.8405Y-4.31
X8.8405Y-4.41
X8.8405Y-4.51
X8.8405Y-4.61
X8.8405Y-4.71
X8.8405Y-4.81
X8.9405Y-2.91
X8.9405Y-3.01
X8.9405Y-3.11
X8.9405Y-3.21
X8.9405Y-3.31
X8.9405Y-3.41
X8.9405Y-3.51
X8.9405Y-3.61
X8.9405Y-3.71
X8.9405Y-3.81
X8.9405Y-3.91
X8.9405Y-4.01
X8.9405Y-4.11
X8.9405Y-4.21
X8.9405Y-4.31
X8.9405Y-4.41
X8.9405Y-4.51
X8.9405Y-4.61
X8.9405Y-4.71
X8.9405Y-4.81
X8.9685Y-5.5039
X7.7128Y-2.33
X7.8128Y-2.33
X7.9128Y-2.33
X8.0128Y-2.33
X6.7913Y-2.6083
X6.8913Y-2.6083
X6.9913Y-2.6083
X5.3205Y-3.76
X5.3205Y-3.86
X5.3205Y-3.96
T4
X5.6941Y-5.6102
X5.9894Y-5.6102
X5.9894Y-5.8957
X6.2453Y-5.6102
X6.5406Y-5.6102
X6.5406Y-5.8957
X6.7965Y-5.6102
X7.0917Y-5.6102
X7.0917Y-5.9024
X7.3476Y-5.6102
X7.6429Y-5.6102
X7.6429Y-5.8957
T5
X5.28Y-2.7
X5.6299Y-2.3327
X7.3228Y-2.5
X5.6299Y-2.7
X6.4295Y-2.5
T0
M30
