G04 #@! TF.GenerationSoftware,KiCad,Pcbnew,5.0.2+dfsg1-1*
G04 #@! TF.CreationDate,2019-04-16T19:48:13-04:00*
G04 #@! TF.ProjectId,ThorntonAudio,54686f72-6e74-46f6-9e41-7564696f2e6b,rev?*
G04 #@! TF.SameCoordinates,Original*
G04 #@! TF.FileFunction,Paste,Bot*
G04 #@! TF.FilePolarity,Positive*
%FSLAX46Y46*%
G04 Gerber Fmt 4.6, Leading zero omitted, Abs format (unit mm)*
G04 Created by KiCad (PCBNEW 5.0.2+dfsg1-1) date Tue 16 Apr 2019 07:48:13 PM EDT*
%MOMM*%
%LPD*%
G01*
G04 APERTURE LIST*
%ADD10C,0.100000*%
%ADD11C,0.875000*%
G04 APERTURE END LIST*
D10*
G04 #@! TO.C,C18*
G36*
X175970691Y-61502053D02*
X175991926Y-61505203D01*
X176012750Y-61510419D01*
X176032962Y-61517651D01*
X176052368Y-61526830D01*
X176070781Y-61537866D01*
X176088024Y-61550654D01*
X176103930Y-61565070D01*
X176118346Y-61580976D01*
X176131134Y-61598219D01*
X176142170Y-61616632D01*
X176151349Y-61636038D01*
X176158581Y-61656250D01*
X176163797Y-61677074D01*
X176166947Y-61698309D01*
X176168000Y-61719750D01*
X176168000Y-62232250D01*
X176166947Y-62253691D01*
X176163797Y-62274926D01*
X176158581Y-62295750D01*
X176151349Y-62315962D01*
X176142170Y-62335368D01*
X176131134Y-62353781D01*
X176118346Y-62371024D01*
X176103930Y-62386930D01*
X176088024Y-62401346D01*
X176070781Y-62414134D01*
X176052368Y-62425170D01*
X176032962Y-62434349D01*
X176012750Y-62441581D01*
X175991926Y-62446797D01*
X175970691Y-62449947D01*
X175949250Y-62451000D01*
X175511750Y-62451000D01*
X175490309Y-62449947D01*
X175469074Y-62446797D01*
X175448250Y-62441581D01*
X175428038Y-62434349D01*
X175408632Y-62425170D01*
X175390219Y-62414134D01*
X175372976Y-62401346D01*
X175357070Y-62386930D01*
X175342654Y-62371024D01*
X175329866Y-62353781D01*
X175318830Y-62335368D01*
X175309651Y-62315962D01*
X175302419Y-62295750D01*
X175297203Y-62274926D01*
X175294053Y-62253691D01*
X175293000Y-62232250D01*
X175293000Y-61719750D01*
X175294053Y-61698309D01*
X175297203Y-61677074D01*
X175302419Y-61656250D01*
X175309651Y-61636038D01*
X175318830Y-61616632D01*
X175329866Y-61598219D01*
X175342654Y-61580976D01*
X175357070Y-61565070D01*
X175372976Y-61550654D01*
X175390219Y-61537866D01*
X175408632Y-61526830D01*
X175428038Y-61517651D01*
X175448250Y-61510419D01*
X175469074Y-61505203D01*
X175490309Y-61502053D01*
X175511750Y-61501000D01*
X175949250Y-61501000D01*
X175970691Y-61502053D01*
X175970691Y-61502053D01*
G37*
D11*
X175730500Y-61976000D03*
D10*
G36*
X177545691Y-61502053D02*
X177566926Y-61505203D01*
X177587750Y-61510419D01*
X177607962Y-61517651D01*
X177627368Y-61526830D01*
X177645781Y-61537866D01*
X177663024Y-61550654D01*
X177678930Y-61565070D01*
X177693346Y-61580976D01*
X177706134Y-61598219D01*
X177717170Y-61616632D01*
X177726349Y-61636038D01*
X177733581Y-61656250D01*
X177738797Y-61677074D01*
X177741947Y-61698309D01*
X177743000Y-61719750D01*
X177743000Y-62232250D01*
X177741947Y-62253691D01*
X177738797Y-62274926D01*
X177733581Y-62295750D01*
X177726349Y-62315962D01*
X177717170Y-62335368D01*
X177706134Y-62353781D01*
X177693346Y-62371024D01*
X177678930Y-62386930D01*
X177663024Y-62401346D01*
X177645781Y-62414134D01*
X177627368Y-62425170D01*
X177607962Y-62434349D01*
X177587750Y-62441581D01*
X177566926Y-62446797D01*
X177545691Y-62449947D01*
X177524250Y-62451000D01*
X177086750Y-62451000D01*
X177065309Y-62449947D01*
X177044074Y-62446797D01*
X177023250Y-62441581D01*
X177003038Y-62434349D01*
X176983632Y-62425170D01*
X176965219Y-62414134D01*
X176947976Y-62401346D01*
X176932070Y-62386930D01*
X176917654Y-62371024D01*
X176904866Y-62353781D01*
X176893830Y-62335368D01*
X176884651Y-62315962D01*
X176877419Y-62295750D01*
X176872203Y-62274926D01*
X176869053Y-62253691D01*
X176868000Y-62232250D01*
X176868000Y-61719750D01*
X176869053Y-61698309D01*
X176872203Y-61677074D01*
X176877419Y-61656250D01*
X176884651Y-61636038D01*
X176893830Y-61616632D01*
X176904866Y-61598219D01*
X176917654Y-61580976D01*
X176932070Y-61565070D01*
X176947976Y-61550654D01*
X176965219Y-61537866D01*
X176983632Y-61526830D01*
X177003038Y-61517651D01*
X177023250Y-61510419D01*
X177044074Y-61505203D01*
X177065309Y-61502053D01*
X177086750Y-61501000D01*
X177524250Y-61501000D01*
X177545691Y-61502053D01*
X177545691Y-61502053D01*
G37*
D11*
X177305500Y-61976000D03*
G04 #@! TD*
D10*
G04 #@! TO.C,C17*
G36*
X172922691Y-61502053D02*
X172943926Y-61505203D01*
X172964750Y-61510419D01*
X172984962Y-61517651D01*
X173004368Y-61526830D01*
X173022781Y-61537866D01*
X173040024Y-61550654D01*
X173055930Y-61565070D01*
X173070346Y-61580976D01*
X173083134Y-61598219D01*
X173094170Y-61616632D01*
X173103349Y-61636038D01*
X173110581Y-61656250D01*
X173115797Y-61677074D01*
X173118947Y-61698309D01*
X173120000Y-61719750D01*
X173120000Y-62232250D01*
X173118947Y-62253691D01*
X173115797Y-62274926D01*
X173110581Y-62295750D01*
X173103349Y-62315962D01*
X173094170Y-62335368D01*
X173083134Y-62353781D01*
X173070346Y-62371024D01*
X173055930Y-62386930D01*
X173040024Y-62401346D01*
X173022781Y-62414134D01*
X173004368Y-62425170D01*
X172984962Y-62434349D01*
X172964750Y-62441581D01*
X172943926Y-62446797D01*
X172922691Y-62449947D01*
X172901250Y-62451000D01*
X172463750Y-62451000D01*
X172442309Y-62449947D01*
X172421074Y-62446797D01*
X172400250Y-62441581D01*
X172380038Y-62434349D01*
X172360632Y-62425170D01*
X172342219Y-62414134D01*
X172324976Y-62401346D01*
X172309070Y-62386930D01*
X172294654Y-62371024D01*
X172281866Y-62353781D01*
X172270830Y-62335368D01*
X172261651Y-62315962D01*
X172254419Y-62295750D01*
X172249203Y-62274926D01*
X172246053Y-62253691D01*
X172245000Y-62232250D01*
X172245000Y-61719750D01*
X172246053Y-61698309D01*
X172249203Y-61677074D01*
X172254419Y-61656250D01*
X172261651Y-61636038D01*
X172270830Y-61616632D01*
X172281866Y-61598219D01*
X172294654Y-61580976D01*
X172309070Y-61565070D01*
X172324976Y-61550654D01*
X172342219Y-61537866D01*
X172360632Y-61526830D01*
X172380038Y-61517651D01*
X172400250Y-61510419D01*
X172421074Y-61505203D01*
X172442309Y-61502053D01*
X172463750Y-61501000D01*
X172901250Y-61501000D01*
X172922691Y-61502053D01*
X172922691Y-61502053D01*
G37*
D11*
X172682500Y-61976000D03*
D10*
G36*
X174497691Y-61502053D02*
X174518926Y-61505203D01*
X174539750Y-61510419D01*
X174559962Y-61517651D01*
X174579368Y-61526830D01*
X174597781Y-61537866D01*
X174615024Y-61550654D01*
X174630930Y-61565070D01*
X174645346Y-61580976D01*
X174658134Y-61598219D01*
X174669170Y-61616632D01*
X174678349Y-61636038D01*
X174685581Y-61656250D01*
X174690797Y-61677074D01*
X174693947Y-61698309D01*
X174695000Y-61719750D01*
X174695000Y-62232250D01*
X174693947Y-62253691D01*
X174690797Y-62274926D01*
X174685581Y-62295750D01*
X174678349Y-62315962D01*
X174669170Y-62335368D01*
X174658134Y-62353781D01*
X174645346Y-62371024D01*
X174630930Y-62386930D01*
X174615024Y-62401346D01*
X174597781Y-62414134D01*
X174579368Y-62425170D01*
X174559962Y-62434349D01*
X174539750Y-62441581D01*
X174518926Y-62446797D01*
X174497691Y-62449947D01*
X174476250Y-62451000D01*
X174038750Y-62451000D01*
X174017309Y-62449947D01*
X173996074Y-62446797D01*
X173975250Y-62441581D01*
X173955038Y-62434349D01*
X173935632Y-62425170D01*
X173917219Y-62414134D01*
X173899976Y-62401346D01*
X173884070Y-62386930D01*
X173869654Y-62371024D01*
X173856866Y-62353781D01*
X173845830Y-62335368D01*
X173836651Y-62315962D01*
X173829419Y-62295750D01*
X173824203Y-62274926D01*
X173821053Y-62253691D01*
X173820000Y-62232250D01*
X173820000Y-61719750D01*
X173821053Y-61698309D01*
X173824203Y-61677074D01*
X173829419Y-61656250D01*
X173836651Y-61636038D01*
X173845830Y-61616632D01*
X173856866Y-61598219D01*
X173869654Y-61580976D01*
X173884070Y-61565070D01*
X173899976Y-61550654D01*
X173917219Y-61537866D01*
X173935632Y-61526830D01*
X173955038Y-61517651D01*
X173975250Y-61510419D01*
X173996074Y-61505203D01*
X174017309Y-61502053D01*
X174038750Y-61501000D01*
X174476250Y-61501000D01*
X174497691Y-61502053D01*
X174497691Y-61502053D01*
G37*
D11*
X174257500Y-61976000D03*
G04 #@! TD*
D10*
G04 #@! TO.C,R3*
G36*
X191576691Y-116962553D02*
X191597926Y-116965703D01*
X191618750Y-116970919D01*
X191638962Y-116978151D01*
X191658368Y-116987330D01*
X191676781Y-116998366D01*
X191694024Y-117011154D01*
X191709930Y-117025570D01*
X191724346Y-117041476D01*
X191737134Y-117058719D01*
X191748170Y-117077132D01*
X191757349Y-117096538D01*
X191764581Y-117116750D01*
X191769797Y-117137574D01*
X191772947Y-117158809D01*
X191774000Y-117180250D01*
X191774000Y-117617750D01*
X191772947Y-117639191D01*
X191769797Y-117660426D01*
X191764581Y-117681250D01*
X191757349Y-117701462D01*
X191748170Y-117720868D01*
X191737134Y-117739281D01*
X191724346Y-117756524D01*
X191709930Y-117772430D01*
X191694024Y-117786846D01*
X191676781Y-117799634D01*
X191658368Y-117810670D01*
X191638962Y-117819849D01*
X191618750Y-117827081D01*
X191597926Y-117832297D01*
X191576691Y-117835447D01*
X191555250Y-117836500D01*
X191042750Y-117836500D01*
X191021309Y-117835447D01*
X191000074Y-117832297D01*
X190979250Y-117827081D01*
X190959038Y-117819849D01*
X190939632Y-117810670D01*
X190921219Y-117799634D01*
X190903976Y-117786846D01*
X190888070Y-117772430D01*
X190873654Y-117756524D01*
X190860866Y-117739281D01*
X190849830Y-117720868D01*
X190840651Y-117701462D01*
X190833419Y-117681250D01*
X190828203Y-117660426D01*
X190825053Y-117639191D01*
X190824000Y-117617750D01*
X190824000Y-117180250D01*
X190825053Y-117158809D01*
X190828203Y-117137574D01*
X190833419Y-117116750D01*
X190840651Y-117096538D01*
X190849830Y-117077132D01*
X190860866Y-117058719D01*
X190873654Y-117041476D01*
X190888070Y-117025570D01*
X190903976Y-117011154D01*
X190921219Y-116998366D01*
X190939632Y-116987330D01*
X190959038Y-116978151D01*
X190979250Y-116970919D01*
X191000074Y-116965703D01*
X191021309Y-116962553D01*
X191042750Y-116961500D01*
X191555250Y-116961500D01*
X191576691Y-116962553D01*
X191576691Y-116962553D01*
G37*
D11*
X191299000Y-117399000D03*
D10*
G36*
X191576691Y-115387553D02*
X191597926Y-115390703D01*
X191618750Y-115395919D01*
X191638962Y-115403151D01*
X191658368Y-115412330D01*
X191676781Y-115423366D01*
X191694024Y-115436154D01*
X191709930Y-115450570D01*
X191724346Y-115466476D01*
X191737134Y-115483719D01*
X191748170Y-115502132D01*
X191757349Y-115521538D01*
X191764581Y-115541750D01*
X191769797Y-115562574D01*
X191772947Y-115583809D01*
X191774000Y-115605250D01*
X191774000Y-116042750D01*
X191772947Y-116064191D01*
X191769797Y-116085426D01*
X191764581Y-116106250D01*
X191757349Y-116126462D01*
X191748170Y-116145868D01*
X191737134Y-116164281D01*
X191724346Y-116181524D01*
X191709930Y-116197430D01*
X191694024Y-116211846D01*
X191676781Y-116224634D01*
X191658368Y-116235670D01*
X191638962Y-116244849D01*
X191618750Y-116252081D01*
X191597926Y-116257297D01*
X191576691Y-116260447D01*
X191555250Y-116261500D01*
X191042750Y-116261500D01*
X191021309Y-116260447D01*
X191000074Y-116257297D01*
X190979250Y-116252081D01*
X190959038Y-116244849D01*
X190939632Y-116235670D01*
X190921219Y-116224634D01*
X190903976Y-116211846D01*
X190888070Y-116197430D01*
X190873654Y-116181524D01*
X190860866Y-116164281D01*
X190849830Y-116145868D01*
X190840651Y-116126462D01*
X190833419Y-116106250D01*
X190828203Y-116085426D01*
X190825053Y-116064191D01*
X190824000Y-116042750D01*
X190824000Y-115605250D01*
X190825053Y-115583809D01*
X190828203Y-115562574D01*
X190833419Y-115541750D01*
X190840651Y-115521538D01*
X190849830Y-115502132D01*
X190860866Y-115483719D01*
X190873654Y-115466476D01*
X190888070Y-115450570D01*
X190903976Y-115436154D01*
X190921219Y-115423366D01*
X190939632Y-115412330D01*
X190959038Y-115403151D01*
X190979250Y-115395919D01*
X191000074Y-115390703D01*
X191021309Y-115387553D01*
X191042750Y-115386500D01*
X191555250Y-115386500D01*
X191576691Y-115387553D01*
X191576691Y-115387553D01*
G37*
D11*
X191299000Y-115824000D03*
G04 #@! TD*
D10*
G04 #@! TO.C,R10*
G36*
X186154191Y-75980053D02*
X186175426Y-75983203D01*
X186196250Y-75988419D01*
X186216462Y-75995651D01*
X186235868Y-76004830D01*
X186254281Y-76015866D01*
X186271524Y-76028654D01*
X186287430Y-76043070D01*
X186301846Y-76058976D01*
X186314634Y-76076219D01*
X186325670Y-76094632D01*
X186334849Y-76114038D01*
X186342081Y-76134250D01*
X186347297Y-76155074D01*
X186350447Y-76176309D01*
X186351500Y-76197750D01*
X186351500Y-76710250D01*
X186350447Y-76731691D01*
X186347297Y-76752926D01*
X186342081Y-76773750D01*
X186334849Y-76793962D01*
X186325670Y-76813368D01*
X186314634Y-76831781D01*
X186301846Y-76849024D01*
X186287430Y-76864930D01*
X186271524Y-76879346D01*
X186254281Y-76892134D01*
X186235868Y-76903170D01*
X186216462Y-76912349D01*
X186196250Y-76919581D01*
X186175426Y-76924797D01*
X186154191Y-76927947D01*
X186132750Y-76929000D01*
X185695250Y-76929000D01*
X185673809Y-76927947D01*
X185652574Y-76924797D01*
X185631750Y-76919581D01*
X185611538Y-76912349D01*
X185592132Y-76903170D01*
X185573719Y-76892134D01*
X185556476Y-76879346D01*
X185540570Y-76864930D01*
X185526154Y-76849024D01*
X185513366Y-76831781D01*
X185502330Y-76813368D01*
X185493151Y-76793962D01*
X185485919Y-76773750D01*
X185480703Y-76752926D01*
X185477553Y-76731691D01*
X185476500Y-76710250D01*
X185476500Y-76197750D01*
X185477553Y-76176309D01*
X185480703Y-76155074D01*
X185485919Y-76134250D01*
X185493151Y-76114038D01*
X185502330Y-76094632D01*
X185513366Y-76076219D01*
X185526154Y-76058976D01*
X185540570Y-76043070D01*
X185556476Y-76028654D01*
X185573719Y-76015866D01*
X185592132Y-76004830D01*
X185611538Y-75995651D01*
X185631750Y-75988419D01*
X185652574Y-75983203D01*
X185673809Y-75980053D01*
X185695250Y-75979000D01*
X186132750Y-75979000D01*
X186154191Y-75980053D01*
X186154191Y-75980053D01*
G37*
D11*
X185914000Y-76454000D03*
D10*
G36*
X187729191Y-75980053D02*
X187750426Y-75983203D01*
X187771250Y-75988419D01*
X187791462Y-75995651D01*
X187810868Y-76004830D01*
X187829281Y-76015866D01*
X187846524Y-76028654D01*
X187862430Y-76043070D01*
X187876846Y-76058976D01*
X187889634Y-76076219D01*
X187900670Y-76094632D01*
X187909849Y-76114038D01*
X187917081Y-76134250D01*
X187922297Y-76155074D01*
X187925447Y-76176309D01*
X187926500Y-76197750D01*
X187926500Y-76710250D01*
X187925447Y-76731691D01*
X187922297Y-76752926D01*
X187917081Y-76773750D01*
X187909849Y-76793962D01*
X187900670Y-76813368D01*
X187889634Y-76831781D01*
X187876846Y-76849024D01*
X187862430Y-76864930D01*
X187846524Y-76879346D01*
X187829281Y-76892134D01*
X187810868Y-76903170D01*
X187791462Y-76912349D01*
X187771250Y-76919581D01*
X187750426Y-76924797D01*
X187729191Y-76927947D01*
X187707750Y-76929000D01*
X187270250Y-76929000D01*
X187248809Y-76927947D01*
X187227574Y-76924797D01*
X187206750Y-76919581D01*
X187186538Y-76912349D01*
X187167132Y-76903170D01*
X187148719Y-76892134D01*
X187131476Y-76879346D01*
X187115570Y-76864930D01*
X187101154Y-76849024D01*
X187088366Y-76831781D01*
X187077330Y-76813368D01*
X187068151Y-76793962D01*
X187060919Y-76773750D01*
X187055703Y-76752926D01*
X187052553Y-76731691D01*
X187051500Y-76710250D01*
X187051500Y-76197750D01*
X187052553Y-76176309D01*
X187055703Y-76155074D01*
X187060919Y-76134250D01*
X187068151Y-76114038D01*
X187077330Y-76094632D01*
X187088366Y-76076219D01*
X187101154Y-76058976D01*
X187115570Y-76043070D01*
X187131476Y-76028654D01*
X187148719Y-76015866D01*
X187167132Y-76004830D01*
X187186538Y-75995651D01*
X187206750Y-75988419D01*
X187227574Y-75983203D01*
X187248809Y-75980053D01*
X187270250Y-75979000D01*
X187707750Y-75979000D01*
X187729191Y-75980053D01*
X187729191Y-75980053D01*
G37*
D11*
X187489000Y-76454000D03*
G04 #@! TD*
D10*
G04 #@! TO.C,R9*
G36*
X187729191Y-78520053D02*
X187750426Y-78523203D01*
X187771250Y-78528419D01*
X187791462Y-78535651D01*
X187810868Y-78544830D01*
X187829281Y-78555866D01*
X187846524Y-78568654D01*
X187862430Y-78583070D01*
X187876846Y-78598976D01*
X187889634Y-78616219D01*
X187900670Y-78634632D01*
X187909849Y-78654038D01*
X187917081Y-78674250D01*
X187922297Y-78695074D01*
X187925447Y-78716309D01*
X187926500Y-78737750D01*
X187926500Y-79250250D01*
X187925447Y-79271691D01*
X187922297Y-79292926D01*
X187917081Y-79313750D01*
X187909849Y-79333962D01*
X187900670Y-79353368D01*
X187889634Y-79371781D01*
X187876846Y-79389024D01*
X187862430Y-79404930D01*
X187846524Y-79419346D01*
X187829281Y-79432134D01*
X187810868Y-79443170D01*
X187791462Y-79452349D01*
X187771250Y-79459581D01*
X187750426Y-79464797D01*
X187729191Y-79467947D01*
X187707750Y-79469000D01*
X187270250Y-79469000D01*
X187248809Y-79467947D01*
X187227574Y-79464797D01*
X187206750Y-79459581D01*
X187186538Y-79452349D01*
X187167132Y-79443170D01*
X187148719Y-79432134D01*
X187131476Y-79419346D01*
X187115570Y-79404930D01*
X187101154Y-79389024D01*
X187088366Y-79371781D01*
X187077330Y-79353368D01*
X187068151Y-79333962D01*
X187060919Y-79313750D01*
X187055703Y-79292926D01*
X187052553Y-79271691D01*
X187051500Y-79250250D01*
X187051500Y-78737750D01*
X187052553Y-78716309D01*
X187055703Y-78695074D01*
X187060919Y-78674250D01*
X187068151Y-78654038D01*
X187077330Y-78634632D01*
X187088366Y-78616219D01*
X187101154Y-78598976D01*
X187115570Y-78583070D01*
X187131476Y-78568654D01*
X187148719Y-78555866D01*
X187167132Y-78544830D01*
X187186538Y-78535651D01*
X187206750Y-78528419D01*
X187227574Y-78523203D01*
X187248809Y-78520053D01*
X187270250Y-78519000D01*
X187707750Y-78519000D01*
X187729191Y-78520053D01*
X187729191Y-78520053D01*
G37*
D11*
X187489000Y-78994000D03*
D10*
G36*
X186154191Y-78520053D02*
X186175426Y-78523203D01*
X186196250Y-78528419D01*
X186216462Y-78535651D01*
X186235868Y-78544830D01*
X186254281Y-78555866D01*
X186271524Y-78568654D01*
X186287430Y-78583070D01*
X186301846Y-78598976D01*
X186314634Y-78616219D01*
X186325670Y-78634632D01*
X186334849Y-78654038D01*
X186342081Y-78674250D01*
X186347297Y-78695074D01*
X186350447Y-78716309D01*
X186351500Y-78737750D01*
X186351500Y-79250250D01*
X186350447Y-79271691D01*
X186347297Y-79292926D01*
X186342081Y-79313750D01*
X186334849Y-79333962D01*
X186325670Y-79353368D01*
X186314634Y-79371781D01*
X186301846Y-79389024D01*
X186287430Y-79404930D01*
X186271524Y-79419346D01*
X186254281Y-79432134D01*
X186235868Y-79443170D01*
X186216462Y-79452349D01*
X186196250Y-79459581D01*
X186175426Y-79464797D01*
X186154191Y-79467947D01*
X186132750Y-79469000D01*
X185695250Y-79469000D01*
X185673809Y-79467947D01*
X185652574Y-79464797D01*
X185631750Y-79459581D01*
X185611538Y-79452349D01*
X185592132Y-79443170D01*
X185573719Y-79432134D01*
X185556476Y-79419346D01*
X185540570Y-79404930D01*
X185526154Y-79389024D01*
X185513366Y-79371781D01*
X185502330Y-79353368D01*
X185493151Y-79333962D01*
X185485919Y-79313750D01*
X185480703Y-79292926D01*
X185477553Y-79271691D01*
X185476500Y-79250250D01*
X185476500Y-78737750D01*
X185477553Y-78716309D01*
X185480703Y-78695074D01*
X185485919Y-78674250D01*
X185493151Y-78654038D01*
X185502330Y-78634632D01*
X185513366Y-78616219D01*
X185526154Y-78598976D01*
X185540570Y-78583070D01*
X185556476Y-78568654D01*
X185573719Y-78555866D01*
X185592132Y-78544830D01*
X185611538Y-78535651D01*
X185631750Y-78528419D01*
X185652574Y-78523203D01*
X185673809Y-78520053D01*
X185695250Y-78519000D01*
X186132750Y-78519000D01*
X186154191Y-78520053D01*
X186154191Y-78520053D01*
G37*
D11*
X185914000Y-78994000D03*
G04 #@! TD*
D10*
G04 #@! TO.C,R8*
G36*
X186154191Y-81060053D02*
X186175426Y-81063203D01*
X186196250Y-81068419D01*
X186216462Y-81075651D01*
X186235868Y-81084830D01*
X186254281Y-81095866D01*
X186271524Y-81108654D01*
X186287430Y-81123070D01*
X186301846Y-81138976D01*
X186314634Y-81156219D01*
X186325670Y-81174632D01*
X186334849Y-81194038D01*
X186342081Y-81214250D01*
X186347297Y-81235074D01*
X186350447Y-81256309D01*
X186351500Y-81277750D01*
X186351500Y-81790250D01*
X186350447Y-81811691D01*
X186347297Y-81832926D01*
X186342081Y-81853750D01*
X186334849Y-81873962D01*
X186325670Y-81893368D01*
X186314634Y-81911781D01*
X186301846Y-81929024D01*
X186287430Y-81944930D01*
X186271524Y-81959346D01*
X186254281Y-81972134D01*
X186235868Y-81983170D01*
X186216462Y-81992349D01*
X186196250Y-81999581D01*
X186175426Y-82004797D01*
X186154191Y-82007947D01*
X186132750Y-82009000D01*
X185695250Y-82009000D01*
X185673809Y-82007947D01*
X185652574Y-82004797D01*
X185631750Y-81999581D01*
X185611538Y-81992349D01*
X185592132Y-81983170D01*
X185573719Y-81972134D01*
X185556476Y-81959346D01*
X185540570Y-81944930D01*
X185526154Y-81929024D01*
X185513366Y-81911781D01*
X185502330Y-81893368D01*
X185493151Y-81873962D01*
X185485919Y-81853750D01*
X185480703Y-81832926D01*
X185477553Y-81811691D01*
X185476500Y-81790250D01*
X185476500Y-81277750D01*
X185477553Y-81256309D01*
X185480703Y-81235074D01*
X185485919Y-81214250D01*
X185493151Y-81194038D01*
X185502330Y-81174632D01*
X185513366Y-81156219D01*
X185526154Y-81138976D01*
X185540570Y-81123070D01*
X185556476Y-81108654D01*
X185573719Y-81095866D01*
X185592132Y-81084830D01*
X185611538Y-81075651D01*
X185631750Y-81068419D01*
X185652574Y-81063203D01*
X185673809Y-81060053D01*
X185695250Y-81059000D01*
X186132750Y-81059000D01*
X186154191Y-81060053D01*
X186154191Y-81060053D01*
G37*
D11*
X185914000Y-81534000D03*
D10*
G36*
X187729191Y-81060053D02*
X187750426Y-81063203D01*
X187771250Y-81068419D01*
X187791462Y-81075651D01*
X187810868Y-81084830D01*
X187829281Y-81095866D01*
X187846524Y-81108654D01*
X187862430Y-81123070D01*
X187876846Y-81138976D01*
X187889634Y-81156219D01*
X187900670Y-81174632D01*
X187909849Y-81194038D01*
X187917081Y-81214250D01*
X187922297Y-81235074D01*
X187925447Y-81256309D01*
X187926500Y-81277750D01*
X187926500Y-81790250D01*
X187925447Y-81811691D01*
X187922297Y-81832926D01*
X187917081Y-81853750D01*
X187909849Y-81873962D01*
X187900670Y-81893368D01*
X187889634Y-81911781D01*
X187876846Y-81929024D01*
X187862430Y-81944930D01*
X187846524Y-81959346D01*
X187829281Y-81972134D01*
X187810868Y-81983170D01*
X187791462Y-81992349D01*
X187771250Y-81999581D01*
X187750426Y-82004797D01*
X187729191Y-82007947D01*
X187707750Y-82009000D01*
X187270250Y-82009000D01*
X187248809Y-82007947D01*
X187227574Y-82004797D01*
X187206750Y-81999581D01*
X187186538Y-81992349D01*
X187167132Y-81983170D01*
X187148719Y-81972134D01*
X187131476Y-81959346D01*
X187115570Y-81944930D01*
X187101154Y-81929024D01*
X187088366Y-81911781D01*
X187077330Y-81893368D01*
X187068151Y-81873962D01*
X187060919Y-81853750D01*
X187055703Y-81832926D01*
X187052553Y-81811691D01*
X187051500Y-81790250D01*
X187051500Y-81277750D01*
X187052553Y-81256309D01*
X187055703Y-81235074D01*
X187060919Y-81214250D01*
X187068151Y-81194038D01*
X187077330Y-81174632D01*
X187088366Y-81156219D01*
X187101154Y-81138976D01*
X187115570Y-81123070D01*
X187131476Y-81108654D01*
X187148719Y-81095866D01*
X187167132Y-81084830D01*
X187186538Y-81075651D01*
X187206750Y-81068419D01*
X187227574Y-81063203D01*
X187248809Y-81060053D01*
X187270250Y-81059000D01*
X187707750Y-81059000D01*
X187729191Y-81060053D01*
X187729191Y-81060053D01*
G37*
D11*
X187489000Y-81534000D03*
G04 #@! TD*
D10*
G04 #@! TO.C,R7*
G36*
X157934691Y-98611553D02*
X157955926Y-98614703D01*
X157976750Y-98619919D01*
X157996962Y-98627151D01*
X158016368Y-98636330D01*
X158034781Y-98647366D01*
X158052024Y-98660154D01*
X158067930Y-98674570D01*
X158082346Y-98690476D01*
X158095134Y-98707719D01*
X158106170Y-98726132D01*
X158115349Y-98745538D01*
X158122581Y-98765750D01*
X158127797Y-98786574D01*
X158130947Y-98807809D01*
X158132000Y-98829250D01*
X158132000Y-99341750D01*
X158130947Y-99363191D01*
X158127797Y-99384426D01*
X158122581Y-99405250D01*
X158115349Y-99425462D01*
X158106170Y-99444868D01*
X158095134Y-99463281D01*
X158082346Y-99480524D01*
X158067930Y-99496430D01*
X158052024Y-99510846D01*
X158034781Y-99523634D01*
X158016368Y-99534670D01*
X157996962Y-99543849D01*
X157976750Y-99551081D01*
X157955926Y-99556297D01*
X157934691Y-99559447D01*
X157913250Y-99560500D01*
X157475750Y-99560500D01*
X157454309Y-99559447D01*
X157433074Y-99556297D01*
X157412250Y-99551081D01*
X157392038Y-99543849D01*
X157372632Y-99534670D01*
X157354219Y-99523634D01*
X157336976Y-99510846D01*
X157321070Y-99496430D01*
X157306654Y-99480524D01*
X157293866Y-99463281D01*
X157282830Y-99444868D01*
X157273651Y-99425462D01*
X157266419Y-99405250D01*
X157261203Y-99384426D01*
X157258053Y-99363191D01*
X157257000Y-99341750D01*
X157257000Y-98829250D01*
X157258053Y-98807809D01*
X157261203Y-98786574D01*
X157266419Y-98765750D01*
X157273651Y-98745538D01*
X157282830Y-98726132D01*
X157293866Y-98707719D01*
X157306654Y-98690476D01*
X157321070Y-98674570D01*
X157336976Y-98660154D01*
X157354219Y-98647366D01*
X157372632Y-98636330D01*
X157392038Y-98627151D01*
X157412250Y-98619919D01*
X157433074Y-98614703D01*
X157454309Y-98611553D01*
X157475750Y-98610500D01*
X157913250Y-98610500D01*
X157934691Y-98611553D01*
X157934691Y-98611553D01*
G37*
D11*
X157694500Y-99085500D03*
D10*
G36*
X159509691Y-98611553D02*
X159530926Y-98614703D01*
X159551750Y-98619919D01*
X159571962Y-98627151D01*
X159591368Y-98636330D01*
X159609781Y-98647366D01*
X159627024Y-98660154D01*
X159642930Y-98674570D01*
X159657346Y-98690476D01*
X159670134Y-98707719D01*
X159681170Y-98726132D01*
X159690349Y-98745538D01*
X159697581Y-98765750D01*
X159702797Y-98786574D01*
X159705947Y-98807809D01*
X159707000Y-98829250D01*
X159707000Y-99341750D01*
X159705947Y-99363191D01*
X159702797Y-99384426D01*
X159697581Y-99405250D01*
X159690349Y-99425462D01*
X159681170Y-99444868D01*
X159670134Y-99463281D01*
X159657346Y-99480524D01*
X159642930Y-99496430D01*
X159627024Y-99510846D01*
X159609781Y-99523634D01*
X159591368Y-99534670D01*
X159571962Y-99543849D01*
X159551750Y-99551081D01*
X159530926Y-99556297D01*
X159509691Y-99559447D01*
X159488250Y-99560500D01*
X159050750Y-99560500D01*
X159029309Y-99559447D01*
X159008074Y-99556297D01*
X158987250Y-99551081D01*
X158967038Y-99543849D01*
X158947632Y-99534670D01*
X158929219Y-99523634D01*
X158911976Y-99510846D01*
X158896070Y-99496430D01*
X158881654Y-99480524D01*
X158868866Y-99463281D01*
X158857830Y-99444868D01*
X158848651Y-99425462D01*
X158841419Y-99405250D01*
X158836203Y-99384426D01*
X158833053Y-99363191D01*
X158832000Y-99341750D01*
X158832000Y-98829250D01*
X158833053Y-98807809D01*
X158836203Y-98786574D01*
X158841419Y-98765750D01*
X158848651Y-98745538D01*
X158857830Y-98726132D01*
X158868866Y-98707719D01*
X158881654Y-98690476D01*
X158896070Y-98674570D01*
X158911976Y-98660154D01*
X158929219Y-98647366D01*
X158947632Y-98636330D01*
X158967038Y-98627151D01*
X158987250Y-98619919D01*
X159008074Y-98614703D01*
X159029309Y-98611553D01*
X159050750Y-98610500D01*
X159488250Y-98610500D01*
X159509691Y-98611553D01*
X159509691Y-98611553D01*
G37*
D11*
X159269500Y-99085500D03*
G04 #@! TD*
D10*
G04 #@! TO.C,R6*
G36*
X149472691Y-115675553D02*
X149493926Y-115678703D01*
X149514750Y-115683919D01*
X149534962Y-115691151D01*
X149554368Y-115700330D01*
X149572781Y-115711366D01*
X149590024Y-115724154D01*
X149605930Y-115738570D01*
X149620346Y-115754476D01*
X149633134Y-115771719D01*
X149644170Y-115790132D01*
X149653349Y-115809538D01*
X149660581Y-115829750D01*
X149665797Y-115850574D01*
X149668947Y-115871809D01*
X149670000Y-115893250D01*
X149670000Y-116330750D01*
X149668947Y-116352191D01*
X149665797Y-116373426D01*
X149660581Y-116394250D01*
X149653349Y-116414462D01*
X149644170Y-116433868D01*
X149633134Y-116452281D01*
X149620346Y-116469524D01*
X149605930Y-116485430D01*
X149590024Y-116499846D01*
X149572781Y-116512634D01*
X149554368Y-116523670D01*
X149534962Y-116532849D01*
X149514750Y-116540081D01*
X149493926Y-116545297D01*
X149472691Y-116548447D01*
X149451250Y-116549500D01*
X148938750Y-116549500D01*
X148917309Y-116548447D01*
X148896074Y-116545297D01*
X148875250Y-116540081D01*
X148855038Y-116532849D01*
X148835632Y-116523670D01*
X148817219Y-116512634D01*
X148799976Y-116499846D01*
X148784070Y-116485430D01*
X148769654Y-116469524D01*
X148756866Y-116452281D01*
X148745830Y-116433868D01*
X148736651Y-116414462D01*
X148729419Y-116394250D01*
X148724203Y-116373426D01*
X148721053Y-116352191D01*
X148720000Y-116330750D01*
X148720000Y-115893250D01*
X148721053Y-115871809D01*
X148724203Y-115850574D01*
X148729419Y-115829750D01*
X148736651Y-115809538D01*
X148745830Y-115790132D01*
X148756866Y-115771719D01*
X148769654Y-115754476D01*
X148784070Y-115738570D01*
X148799976Y-115724154D01*
X148817219Y-115711366D01*
X148835632Y-115700330D01*
X148855038Y-115691151D01*
X148875250Y-115683919D01*
X148896074Y-115678703D01*
X148917309Y-115675553D01*
X148938750Y-115674500D01*
X149451250Y-115674500D01*
X149472691Y-115675553D01*
X149472691Y-115675553D01*
G37*
D11*
X149195000Y-116112000D03*
D10*
G36*
X149472691Y-117250553D02*
X149493926Y-117253703D01*
X149514750Y-117258919D01*
X149534962Y-117266151D01*
X149554368Y-117275330D01*
X149572781Y-117286366D01*
X149590024Y-117299154D01*
X149605930Y-117313570D01*
X149620346Y-117329476D01*
X149633134Y-117346719D01*
X149644170Y-117365132D01*
X149653349Y-117384538D01*
X149660581Y-117404750D01*
X149665797Y-117425574D01*
X149668947Y-117446809D01*
X149670000Y-117468250D01*
X149670000Y-117905750D01*
X149668947Y-117927191D01*
X149665797Y-117948426D01*
X149660581Y-117969250D01*
X149653349Y-117989462D01*
X149644170Y-118008868D01*
X149633134Y-118027281D01*
X149620346Y-118044524D01*
X149605930Y-118060430D01*
X149590024Y-118074846D01*
X149572781Y-118087634D01*
X149554368Y-118098670D01*
X149534962Y-118107849D01*
X149514750Y-118115081D01*
X149493926Y-118120297D01*
X149472691Y-118123447D01*
X149451250Y-118124500D01*
X148938750Y-118124500D01*
X148917309Y-118123447D01*
X148896074Y-118120297D01*
X148875250Y-118115081D01*
X148855038Y-118107849D01*
X148835632Y-118098670D01*
X148817219Y-118087634D01*
X148799976Y-118074846D01*
X148784070Y-118060430D01*
X148769654Y-118044524D01*
X148756866Y-118027281D01*
X148745830Y-118008868D01*
X148736651Y-117989462D01*
X148729419Y-117969250D01*
X148724203Y-117948426D01*
X148721053Y-117927191D01*
X148720000Y-117905750D01*
X148720000Y-117468250D01*
X148721053Y-117446809D01*
X148724203Y-117425574D01*
X148729419Y-117404750D01*
X148736651Y-117384538D01*
X148745830Y-117365132D01*
X148756866Y-117346719D01*
X148769654Y-117329476D01*
X148784070Y-117313570D01*
X148799976Y-117299154D01*
X148817219Y-117286366D01*
X148835632Y-117275330D01*
X148855038Y-117266151D01*
X148875250Y-117258919D01*
X148896074Y-117253703D01*
X148917309Y-117250553D01*
X148938750Y-117249500D01*
X149451250Y-117249500D01*
X149472691Y-117250553D01*
X149472691Y-117250553D01*
G37*
D11*
X149195000Y-117687000D03*
G04 #@! TD*
D10*
G04 #@! TO.C,R5*
G36*
X163636691Y-116962553D02*
X163657926Y-116965703D01*
X163678750Y-116970919D01*
X163698962Y-116978151D01*
X163718368Y-116987330D01*
X163736781Y-116998366D01*
X163754024Y-117011154D01*
X163769930Y-117025570D01*
X163784346Y-117041476D01*
X163797134Y-117058719D01*
X163808170Y-117077132D01*
X163817349Y-117096538D01*
X163824581Y-117116750D01*
X163829797Y-117137574D01*
X163832947Y-117158809D01*
X163834000Y-117180250D01*
X163834000Y-117617750D01*
X163832947Y-117639191D01*
X163829797Y-117660426D01*
X163824581Y-117681250D01*
X163817349Y-117701462D01*
X163808170Y-117720868D01*
X163797134Y-117739281D01*
X163784346Y-117756524D01*
X163769930Y-117772430D01*
X163754024Y-117786846D01*
X163736781Y-117799634D01*
X163718368Y-117810670D01*
X163698962Y-117819849D01*
X163678750Y-117827081D01*
X163657926Y-117832297D01*
X163636691Y-117835447D01*
X163615250Y-117836500D01*
X163102750Y-117836500D01*
X163081309Y-117835447D01*
X163060074Y-117832297D01*
X163039250Y-117827081D01*
X163019038Y-117819849D01*
X162999632Y-117810670D01*
X162981219Y-117799634D01*
X162963976Y-117786846D01*
X162948070Y-117772430D01*
X162933654Y-117756524D01*
X162920866Y-117739281D01*
X162909830Y-117720868D01*
X162900651Y-117701462D01*
X162893419Y-117681250D01*
X162888203Y-117660426D01*
X162885053Y-117639191D01*
X162884000Y-117617750D01*
X162884000Y-117180250D01*
X162885053Y-117158809D01*
X162888203Y-117137574D01*
X162893419Y-117116750D01*
X162900651Y-117096538D01*
X162909830Y-117077132D01*
X162920866Y-117058719D01*
X162933654Y-117041476D01*
X162948070Y-117025570D01*
X162963976Y-117011154D01*
X162981219Y-116998366D01*
X162999632Y-116987330D01*
X163019038Y-116978151D01*
X163039250Y-116970919D01*
X163060074Y-116965703D01*
X163081309Y-116962553D01*
X163102750Y-116961500D01*
X163615250Y-116961500D01*
X163636691Y-116962553D01*
X163636691Y-116962553D01*
G37*
D11*
X163359000Y-117399000D03*
D10*
G36*
X163636691Y-115387553D02*
X163657926Y-115390703D01*
X163678750Y-115395919D01*
X163698962Y-115403151D01*
X163718368Y-115412330D01*
X163736781Y-115423366D01*
X163754024Y-115436154D01*
X163769930Y-115450570D01*
X163784346Y-115466476D01*
X163797134Y-115483719D01*
X163808170Y-115502132D01*
X163817349Y-115521538D01*
X163824581Y-115541750D01*
X163829797Y-115562574D01*
X163832947Y-115583809D01*
X163834000Y-115605250D01*
X163834000Y-116042750D01*
X163832947Y-116064191D01*
X163829797Y-116085426D01*
X163824581Y-116106250D01*
X163817349Y-116126462D01*
X163808170Y-116145868D01*
X163797134Y-116164281D01*
X163784346Y-116181524D01*
X163769930Y-116197430D01*
X163754024Y-116211846D01*
X163736781Y-116224634D01*
X163718368Y-116235670D01*
X163698962Y-116244849D01*
X163678750Y-116252081D01*
X163657926Y-116257297D01*
X163636691Y-116260447D01*
X163615250Y-116261500D01*
X163102750Y-116261500D01*
X163081309Y-116260447D01*
X163060074Y-116257297D01*
X163039250Y-116252081D01*
X163019038Y-116244849D01*
X162999632Y-116235670D01*
X162981219Y-116224634D01*
X162963976Y-116211846D01*
X162948070Y-116197430D01*
X162933654Y-116181524D01*
X162920866Y-116164281D01*
X162909830Y-116145868D01*
X162900651Y-116126462D01*
X162893419Y-116106250D01*
X162888203Y-116085426D01*
X162885053Y-116064191D01*
X162884000Y-116042750D01*
X162884000Y-115605250D01*
X162885053Y-115583809D01*
X162888203Y-115562574D01*
X162893419Y-115541750D01*
X162900651Y-115521538D01*
X162909830Y-115502132D01*
X162920866Y-115483719D01*
X162933654Y-115466476D01*
X162948070Y-115450570D01*
X162963976Y-115436154D01*
X162981219Y-115423366D01*
X162999632Y-115412330D01*
X163019038Y-115403151D01*
X163039250Y-115395919D01*
X163060074Y-115390703D01*
X163081309Y-115387553D01*
X163102750Y-115386500D01*
X163615250Y-115386500D01*
X163636691Y-115387553D01*
X163636691Y-115387553D01*
G37*
D11*
X163359000Y-115824000D03*
G04 #@! TD*
D10*
G04 #@! TO.C,R4*
G36*
X177606691Y-115387553D02*
X177627926Y-115390703D01*
X177648750Y-115395919D01*
X177668962Y-115403151D01*
X177688368Y-115412330D01*
X177706781Y-115423366D01*
X177724024Y-115436154D01*
X177739930Y-115450570D01*
X177754346Y-115466476D01*
X177767134Y-115483719D01*
X177778170Y-115502132D01*
X177787349Y-115521538D01*
X177794581Y-115541750D01*
X177799797Y-115562574D01*
X177802947Y-115583809D01*
X177804000Y-115605250D01*
X177804000Y-116042750D01*
X177802947Y-116064191D01*
X177799797Y-116085426D01*
X177794581Y-116106250D01*
X177787349Y-116126462D01*
X177778170Y-116145868D01*
X177767134Y-116164281D01*
X177754346Y-116181524D01*
X177739930Y-116197430D01*
X177724024Y-116211846D01*
X177706781Y-116224634D01*
X177688368Y-116235670D01*
X177668962Y-116244849D01*
X177648750Y-116252081D01*
X177627926Y-116257297D01*
X177606691Y-116260447D01*
X177585250Y-116261500D01*
X177072750Y-116261500D01*
X177051309Y-116260447D01*
X177030074Y-116257297D01*
X177009250Y-116252081D01*
X176989038Y-116244849D01*
X176969632Y-116235670D01*
X176951219Y-116224634D01*
X176933976Y-116211846D01*
X176918070Y-116197430D01*
X176903654Y-116181524D01*
X176890866Y-116164281D01*
X176879830Y-116145868D01*
X176870651Y-116126462D01*
X176863419Y-116106250D01*
X176858203Y-116085426D01*
X176855053Y-116064191D01*
X176854000Y-116042750D01*
X176854000Y-115605250D01*
X176855053Y-115583809D01*
X176858203Y-115562574D01*
X176863419Y-115541750D01*
X176870651Y-115521538D01*
X176879830Y-115502132D01*
X176890866Y-115483719D01*
X176903654Y-115466476D01*
X176918070Y-115450570D01*
X176933976Y-115436154D01*
X176951219Y-115423366D01*
X176969632Y-115412330D01*
X176989038Y-115403151D01*
X177009250Y-115395919D01*
X177030074Y-115390703D01*
X177051309Y-115387553D01*
X177072750Y-115386500D01*
X177585250Y-115386500D01*
X177606691Y-115387553D01*
X177606691Y-115387553D01*
G37*
D11*
X177329000Y-115824000D03*
D10*
G36*
X177606691Y-116962553D02*
X177627926Y-116965703D01*
X177648750Y-116970919D01*
X177668962Y-116978151D01*
X177688368Y-116987330D01*
X177706781Y-116998366D01*
X177724024Y-117011154D01*
X177739930Y-117025570D01*
X177754346Y-117041476D01*
X177767134Y-117058719D01*
X177778170Y-117077132D01*
X177787349Y-117096538D01*
X177794581Y-117116750D01*
X177799797Y-117137574D01*
X177802947Y-117158809D01*
X177804000Y-117180250D01*
X177804000Y-117617750D01*
X177802947Y-117639191D01*
X177799797Y-117660426D01*
X177794581Y-117681250D01*
X177787349Y-117701462D01*
X177778170Y-117720868D01*
X177767134Y-117739281D01*
X177754346Y-117756524D01*
X177739930Y-117772430D01*
X177724024Y-117786846D01*
X177706781Y-117799634D01*
X177688368Y-117810670D01*
X177668962Y-117819849D01*
X177648750Y-117827081D01*
X177627926Y-117832297D01*
X177606691Y-117835447D01*
X177585250Y-117836500D01*
X177072750Y-117836500D01*
X177051309Y-117835447D01*
X177030074Y-117832297D01*
X177009250Y-117827081D01*
X176989038Y-117819849D01*
X176969632Y-117810670D01*
X176951219Y-117799634D01*
X176933976Y-117786846D01*
X176918070Y-117772430D01*
X176903654Y-117756524D01*
X176890866Y-117739281D01*
X176879830Y-117720868D01*
X176870651Y-117701462D01*
X176863419Y-117681250D01*
X176858203Y-117660426D01*
X176855053Y-117639191D01*
X176854000Y-117617750D01*
X176854000Y-117180250D01*
X176855053Y-117158809D01*
X176858203Y-117137574D01*
X176863419Y-117116750D01*
X176870651Y-117096538D01*
X176879830Y-117077132D01*
X176890866Y-117058719D01*
X176903654Y-117041476D01*
X176918070Y-117025570D01*
X176933976Y-117011154D01*
X176951219Y-116998366D01*
X176969632Y-116987330D01*
X176989038Y-116978151D01*
X177009250Y-116970919D01*
X177030074Y-116965703D01*
X177051309Y-116962553D01*
X177072750Y-116961500D01*
X177585250Y-116961500D01*
X177606691Y-116962553D01*
X177606691Y-116962553D01*
G37*
D11*
X177329000Y-117399000D03*
G04 #@! TD*
D10*
G04 #@! TO.C,C9*
G36*
X150640191Y-61274053D02*
X150661426Y-61277203D01*
X150682250Y-61282419D01*
X150702462Y-61289651D01*
X150721868Y-61298830D01*
X150740281Y-61309866D01*
X150757524Y-61322654D01*
X150773430Y-61337070D01*
X150787846Y-61352976D01*
X150800634Y-61370219D01*
X150811670Y-61388632D01*
X150820849Y-61408038D01*
X150828081Y-61428250D01*
X150833297Y-61449074D01*
X150836447Y-61470309D01*
X150837500Y-61491750D01*
X150837500Y-62004250D01*
X150836447Y-62025691D01*
X150833297Y-62046926D01*
X150828081Y-62067750D01*
X150820849Y-62087962D01*
X150811670Y-62107368D01*
X150800634Y-62125781D01*
X150787846Y-62143024D01*
X150773430Y-62158930D01*
X150757524Y-62173346D01*
X150740281Y-62186134D01*
X150721868Y-62197170D01*
X150702462Y-62206349D01*
X150682250Y-62213581D01*
X150661426Y-62218797D01*
X150640191Y-62221947D01*
X150618750Y-62223000D01*
X150181250Y-62223000D01*
X150159809Y-62221947D01*
X150138574Y-62218797D01*
X150117750Y-62213581D01*
X150097538Y-62206349D01*
X150078132Y-62197170D01*
X150059719Y-62186134D01*
X150042476Y-62173346D01*
X150026570Y-62158930D01*
X150012154Y-62143024D01*
X149999366Y-62125781D01*
X149988330Y-62107368D01*
X149979151Y-62087962D01*
X149971919Y-62067750D01*
X149966703Y-62046926D01*
X149963553Y-62025691D01*
X149962500Y-62004250D01*
X149962500Y-61491750D01*
X149963553Y-61470309D01*
X149966703Y-61449074D01*
X149971919Y-61428250D01*
X149979151Y-61408038D01*
X149988330Y-61388632D01*
X149999366Y-61370219D01*
X150012154Y-61352976D01*
X150026570Y-61337070D01*
X150042476Y-61322654D01*
X150059719Y-61309866D01*
X150078132Y-61298830D01*
X150097538Y-61289651D01*
X150117750Y-61282419D01*
X150138574Y-61277203D01*
X150159809Y-61274053D01*
X150181250Y-61273000D01*
X150618750Y-61273000D01*
X150640191Y-61274053D01*
X150640191Y-61274053D01*
G37*
D11*
X150400000Y-61748000D03*
D10*
G36*
X152215191Y-61274053D02*
X152236426Y-61277203D01*
X152257250Y-61282419D01*
X152277462Y-61289651D01*
X152296868Y-61298830D01*
X152315281Y-61309866D01*
X152332524Y-61322654D01*
X152348430Y-61337070D01*
X152362846Y-61352976D01*
X152375634Y-61370219D01*
X152386670Y-61388632D01*
X152395849Y-61408038D01*
X152403081Y-61428250D01*
X152408297Y-61449074D01*
X152411447Y-61470309D01*
X152412500Y-61491750D01*
X152412500Y-62004250D01*
X152411447Y-62025691D01*
X152408297Y-62046926D01*
X152403081Y-62067750D01*
X152395849Y-62087962D01*
X152386670Y-62107368D01*
X152375634Y-62125781D01*
X152362846Y-62143024D01*
X152348430Y-62158930D01*
X152332524Y-62173346D01*
X152315281Y-62186134D01*
X152296868Y-62197170D01*
X152277462Y-62206349D01*
X152257250Y-62213581D01*
X152236426Y-62218797D01*
X152215191Y-62221947D01*
X152193750Y-62223000D01*
X151756250Y-62223000D01*
X151734809Y-62221947D01*
X151713574Y-62218797D01*
X151692750Y-62213581D01*
X151672538Y-62206349D01*
X151653132Y-62197170D01*
X151634719Y-62186134D01*
X151617476Y-62173346D01*
X151601570Y-62158930D01*
X151587154Y-62143024D01*
X151574366Y-62125781D01*
X151563330Y-62107368D01*
X151554151Y-62087962D01*
X151546919Y-62067750D01*
X151541703Y-62046926D01*
X151538553Y-62025691D01*
X151537500Y-62004250D01*
X151537500Y-61491750D01*
X151538553Y-61470309D01*
X151541703Y-61449074D01*
X151546919Y-61428250D01*
X151554151Y-61408038D01*
X151563330Y-61388632D01*
X151574366Y-61370219D01*
X151587154Y-61352976D01*
X151601570Y-61337070D01*
X151617476Y-61322654D01*
X151634719Y-61309866D01*
X151653132Y-61298830D01*
X151672538Y-61289651D01*
X151692750Y-61282419D01*
X151713574Y-61277203D01*
X151734809Y-61274053D01*
X151756250Y-61273000D01*
X152193750Y-61273000D01*
X152215191Y-61274053D01*
X152215191Y-61274053D01*
G37*
D11*
X151975000Y-61748000D03*
G04 #@! TD*
D10*
G04 #@! TO.C,C10*
G36*
X154145191Y-61274053D02*
X154166426Y-61277203D01*
X154187250Y-61282419D01*
X154207462Y-61289651D01*
X154226868Y-61298830D01*
X154245281Y-61309866D01*
X154262524Y-61322654D01*
X154278430Y-61337070D01*
X154292846Y-61352976D01*
X154305634Y-61370219D01*
X154316670Y-61388632D01*
X154325849Y-61408038D01*
X154333081Y-61428250D01*
X154338297Y-61449074D01*
X154341447Y-61470309D01*
X154342500Y-61491750D01*
X154342500Y-62004250D01*
X154341447Y-62025691D01*
X154338297Y-62046926D01*
X154333081Y-62067750D01*
X154325849Y-62087962D01*
X154316670Y-62107368D01*
X154305634Y-62125781D01*
X154292846Y-62143024D01*
X154278430Y-62158930D01*
X154262524Y-62173346D01*
X154245281Y-62186134D01*
X154226868Y-62197170D01*
X154207462Y-62206349D01*
X154187250Y-62213581D01*
X154166426Y-62218797D01*
X154145191Y-62221947D01*
X154123750Y-62223000D01*
X153686250Y-62223000D01*
X153664809Y-62221947D01*
X153643574Y-62218797D01*
X153622750Y-62213581D01*
X153602538Y-62206349D01*
X153583132Y-62197170D01*
X153564719Y-62186134D01*
X153547476Y-62173346D01*
X153531570Y-62158930D01*
X153517154Y-62143024D01*
X153504366Y-62125781D01*
X153493330Y-62107368D01*
X153484151Y-62087962D01*
X153476919Y-62067750D01*
X153471703Y-62046926D01*
X153468553Y-62025691D01*
X153467500Y-62004250D01*
X153467500Y-61491750D01*
X153468553Y-61470309D01*
X153471703Y-61449074D01*
X153476919Y-61428250D01*
X153484151Y-61408038D01*
X153493330Y-61388632D01*
X153504366Y-61370219D01*
X153517154Y-61352976D01*
X153531570Y-61337070D01*
X153547476Y-61322654D01*
X153564719Y-61309866D01*
X153583132Y-61298830D01*
X153602538Y-61289651D01*
X153622750Y-61282419D01*
X153643574Y-61277203D01*
X153664809Y-61274053D01*
X153686250Y-61273000D01*
X154123750Y-61273000D01*
X154145191Y-61274053D01*
X154145191Y-61274053D01*
G37*
D11*
X153905000Y-61748000D03*
D10*
G36*
X155720191Y-61274053D02*
X155741426Y-61277203D01*
X155762250Y-61282419D01*
X155782462Y-61289651D01*
X155801868Y-61298830D01*
X155820281Y-61309866D01*
X155837524Y-61322654D01*
X155853430Y-61337070D01*
X155867846Y-61352976D01*
X155880634Y-61370219D01*
X155891670Y-61388632D01*
X155900849Y-61408038D01*
X155908081Y-61428250D01*
X155913297Y-61449074D01*
X155916447Y-61470309D01*
X155917500Y-61491750D01*
X155917500Y-62004250D01*
X155916447Y-62025691D01*
X155913297Y-62046926D01*
X155908081Y-62067750D01*
X155900849Y-62087962D01*
X155891670Y-62107368D01*
X155880634Y-62125781D01*
X155867846Y-62143024D01*
X155853430Y-62158930D01*
X155837524Y-62173346D01*
X155820281Y-62186134D01*
X155801868Y-62197170D01*
X155782462Y-62206349D01*
X155762250Y-62213581D01*
X155741426Y-62218797D01*
X155720191Y-62221947D01*
X155698750Y-62223000D01*
X155261250Y-62223000D01*
X155239809Y-62221947D01*
X155218574Y-62218797D01*
X155197750Y-62213581D01*
X155177538Y-62206349D01*
X155158132Y-62197170D01*
X155139719Y-62186134D01*
X155122476Y-62173346D01*
X155106570Y-62158930D01*
X155092154Y-62143024D01*
X155079366Y-62125781D01*
X155068330Y-62107368D01*
X155059151Y-62087962D01*
X155051919Y-62067750D01*
X155046703Y-62046926D01*
X155043553Y-62025691D01*
X155042500Y-62004250D01*
X155042500Y-61491750D01*
X155043553Y-61470309D01*
X155046703Y-61449074D01*
X155051919Y-61428250D01*
X155059151Y-61408038D01*
X155068330Y-61388632D01*
X155079366Y-61370219D01*
X155092154Y-61352976D01*
X155106570Y-61337070D01*
X155122476Y-61322654D01*
X155139719Y-61309866D01*
X155158132Y-61298830D01*
X155177538Y-61289651D01*
X155197750Y-61282419D01*
X155218574Y-61277203D01*
X155239809Y-61274053D01*
X155261250Y-61273000D01*
X155698750Y-61273000D01*
X155720191Y-61274053D01*
X155720191Y-61274053D01*
G37*
D11*
X155480000Y-61748000D03*
G04 #@! TD*
M02*
