G04 #@! TF.GenerationSoftware,KiCad,Pcbnew,5.0.2+dfsg1-1*
G04 #@! TF.CreationDate,2019-04-16T19:48:13-04:00*
G04 #@! TF.ProjectId,ThorntonAudio,54686f72-6e74-46f6-9e41-7564696f2e6b,rev?*
G04 #@! TF.SameCoordinates,Original*
G04 #@! TF.FileFunction,Paste,Top*
G04 #@! TF.FilePolarity,Positive*
%FSLAX46Y46*%
G04 Gerber Fmt 4.6, Leading zero omitted, Abs format (unit mm)*
G04 Created by KiCad (PCBNEW 5.0.2+dfsg1-1) date Tue 16 Apr 2019 07:48:13 PM EDT*
%MOMM*%
%LPD*%
G01*
G04 APERTURE LIST*
%ADD10C,0.100000*%
%ADD11C,0.875000*%
%ADD12R,1.725000X0.600000*%
%ADD13R,0.650000X1.950000*%
%ADD14R,0.600000X1.500000*%
%ADD15C,0.975000*%
G04 APERTURE END LIST*
D10*
G04 #@! TO.C,R13*
G36*
X209990191Y-95026053D02*
X210011426Y-95029203D01*
X210032250Y-95034419D01*
X210052462Y-95041651D01*
X210071868Y-95050830D01*
X210090281Y-95061866D01*
X210107524Y-95074654D01*
X210123430Y-95089070D01*
X210137846Y-95104976D01*
X210150634Y-95122219D01*
X210161670Y-95140632D01*
X210170849Y-95160038D01*
X210178081Y-95180250D01*
X210183297Y-95201074D01*
X210186447Y-95222309D01*
X210187500Y-95243750D01*
X210187500Y-95756250D01*
X210186447Y-95777691D01*
X210183297Y-95798926D01*
X210178081Y-95819750D01*
X210170849Y-95839962D01*
X210161670Y-95859368D01*
X210150634Y-95877781D01*
X210137846Y-95895024D01*
X210123430Y-95910930D01*
X210107524Y-95925346D01*
X210090281Y-95938134D01*
X210071868Y-95949170D01*
X210052462Y-95958349D01*
X210032250Y-95965581D01*
X210011426Y-95970797D01*
X209990191Y-95973947D01*
X209968750Y-95975000D01*
X209531250Y-95975000D01*
X209509809Y-95973947D01*
X209488574Y-95970797D01*
X209467750Y-95965581D01*
X209447538Y-95958349D01*
X209428132Y-95949170D01*
X209409719Y-95938134D01*
X209392476Y-95925346D01*
X209376570Y-95910930D01*
X209362154Y-95895024D01*
X209349366Y-95877781D01*
X209338330Y-95859368D01*
X209329151Y-95839962D01*
X209321919Y-95819750D01*
X209316703Y-95798926D01*
X209313553Y-95777691D01*
X209312500Y-95756250D01*
X209312500Y-95243750D01*
X209313553Y-95222309D01*
X209316703Y-95201074D01*
X209321919Y-95180250D01*
X209329151Y-95160038D01*
X209338330Y-95140632D01*
X209349366Y-95122219D01*
X209362154Y-95104976D01*
X209376570Y-95089070D01*
X209392476Y-95074654D01*
X209409719Y-95061866D01*
X209428132Y-95050830D01*
X209447538Y-95041651D01*
X209467750Y-95034419D01*
X209488574Y-95029203D01*
X209509809Y-95026053D01*
X209531250Y-95025000D01*
X209968750Y-95025000D01*
X209990191Y-95026053D01*
X209990191Y-95026053D01*
G37*
D11*
X209750000Y-95500000D03*
D10*
G36*
X211565191Y-95026053D02*
X211586426Y-95029203D01*
X211607250Y-95034419D01*
X211627462Y-95041651D01*
X211646868Y-95050830D01*
X211665281Y-95061866D01*
X211682524Y-95074654D01*
X211698430Y-95089070D01*
X211712846Y-95104976D01*
X211725634Y-95122219D01*
X211736670Y-95140632D01*
X211745849Y-95160038D01*
X211753081Y-95180250D01*
X211758297Y-95201074D01*
X211761447Y-95222309D01*
X211762500Y-95243750D01*
X211762500Y-95756250D01*
X211761447Y-95777691D01*
X211758297Y-95798926D01*
X211753081Y-95819750D01*
X211745849Y-95839962D01*
X211736670Y-95859368D01*
X211725634Y-95877781D01*
X211712846Y-95895024D01*
X211698430Y-95910930D01*
X211682524Y-95925346D01*
X211665281Y-95938134D01*
X211646868Y-95949170D01*
X211627462Y-95958349D01*
X211607250Y-95965581D01*
X211586426Y-95970797D01*
X211565191Y-95973947D01*
X211543750Y-95975000D01*
X211106250Y-95975000D01*
X211084809Y-95973947D01*
X211063574Y-95970797D01*
X211042750Y-95965581D01*
X211022538Y-95958349D01*
X211003132Y-95949170D01*
X210984719Y-95938134D01*
X210967476Y-95925346D01*
X210951570Y-95910930D01*
X210937154Y-95895024D01*
X210924366Y-95877781D01*
X210913330Y-95859368D01*
X210904151Y-95839962D01*
X210896919Y-95819750D01*
X210891703Y-95798926D01*
X210888553Y-95777691D01*
X210887500Y-95756250D01*
X210887500Y-95243750D01*
X210888553Y-95222309D01*
X210891703Y-95201074D01*
X210896919Y-95180250D01*
X210904151Y-95160038D01*
X210913330Y-95140632D01*
X210924366Y-95122219D01*
X210937154Y-95104976D01*
X210951570Y-95089070D01*
X210967476Y-95074654D01*
X210984719Y-95061866D01*
X211003132Y-95050830D01*
X211022538Y-95041651D01*
X211042750Y-95034419D01*
X211063574Y-95029203D01*
X211084809Y-95026053D01*
X211106250Y-95025000D01*
X211543750Y-95025000D01*
X211565191Y-95026053D01*
X211565191Y-95026053D01*
G37*
D11*
X211325000Y-95500000D03*
G04 #@! TD*
D10*
G04 #@! TO.C,R12*
G36*
X211527691Y-96776053D02*
X211548926Y-96779203D01*
X211569750Y-96784419D01*
X211589962Y-96791651D01*
X211609368Y-96800830D01*
X211627781Y-96811866D01*
X211645024Y-96824654D01*
X211660930Y-96839070D01*
X211675346Y-96854976D01*
X211688134Y-96872219D01*
X211699170Y-96890632D01*
X211708349Y-96910038D01*
X211715581Y-96930250D01*
X211720797Y-96951074D01*
X211723947Y-96972309D01*
X211725000Y-96993750D01*
X211725000Y-97506250D01*
X211723947Y-97527691D01*
X211720797Y-97548926D01*
X211715581Y-97569750D01*
X211708349Y-97589962D01*
X211699170Y-97609368D01*
X211688134Y-97627781D01*
X211675346Y-97645024D01*
X211660930Y-97660930D01*
X211645024Y-97675346D01*
X211627781Y-97688134D01*
X211609368Y-97699170D01*
X211589962Y-97708349D01*
X211569750Y-97715581D01*
X211548926Y-97720797D01*
X211527691Y-97723947D01*
X211506250Y-97725000D01*
X211068750Y-97725000D01*
X211047309Y-97723947D01*
X211026074Y-97720797D01*
X211005250Y-97715581D01*
X210985038Y-97708349D01*
X210965632Y-97699170D01*
X210947219Y-97688134D01*
X210929976Y-97675346D01*
X210914070Y-97660930D01*
X210899654Y-97645024D01*
X210886866Y-97627781D01*
X210875830Y-97609368D01*
X210866651Y-97589962D01*
X210859419Y-97569750D01*
X210854203Y-97548926D01*
X210851053Y-97527691D01*
X210850000Y-97506250D01*
X210850000Y-96993750D01*
X210851053Y-96972309D01*
X210854203Y-96951074D01*
X210859419Y-96930250D01*
X210866651Y-96910038D01*
X210875830Y-96890632D01*
X210886866Y-96872219D01*
X210899654Y-96854976D01*
X210914070Y-96839070D01*
X210929976Y-96824654D01*
X210947219Y-96811866D01*
X210965632Y-96800830D01*
X210985038Y-96791651D01*
X211005250Y-96784419D01*
X211026074Y-96779203D01*
X211047309Y-96776053D01*
X211068750Y-96775000D01*
X211506250Y-96775000D01*
X211527691Y-96776053D01*
X211527691Y-96776053D01*
G37*
D11*
X211287500Y-97250000D03*
D10*
G36*
X209952691Y-96776053D02*
X209973926Y-96779203D01*
X209994750Y-96784419D01*
X210014962Y-96791651D01*
X210034368Y-96800830D01*
X210052781Y-96811866D01*
X210070024Y-96824654D01*
X210085930Y-96839070D01*
X210100346Y-96854976D01*
X210113134Y-96872219D01*
X210124170Y-96890632D01*
X210133349Y-96910038D01*
X210140581Y-96930250D01*
X210145797Y-96951074D01*
X210148947Y-96972309D01*
X210150000Y-96993750D01*
X210150000Y-97506250D01*
X210148947Y-97527691D01*
X210145797Y-97548926D01*
X210140581Y-97569750D01*
X210133349Y-97589962D01*
X210124170Y-97609368D01*
X210113134Y-97627781D01*
X210100346Y-97645024D01*
X210085930Y-97660930D01*
X210070024Y-97675346D01*
X210052781Y-97688134D01*
X210034368Y-97699170D01*
X210014962Y-97708349D01*
X209994750Y-97715581D01*
X209973926Y-97720797D01*
X209952691Y-97723947D01*
X209931250Y-97725000D01*
X209493750Y-97725000D01*
X209472309Y-97723947D01*
X209451074Y-97720797D01*
X209430250Y-97715581D01*
X209410038Y-97708349D01*
X209390632Y-97699170D01*
X209372219Y-97688134D01*
X209354976Y-97675346D01*
X209339070Y-97660930D01*
X209324654Y-97645024D01*
X209311866Y-97627781D01*
X209300830Y-97609368D01*
X209291651Y-97589962D01*
X209284419Y-97569750D01*
X209279203Y-97548926D01*
X209276053Y-97527691D01*
X209275000Y-97506250D01*
X209275000Y-96993750D01*
X209276053Y-96972309D01*
X209279203Y-96951074D01*
X209284419Y-96930250D01*
X209291651Y-96910038D01*
X209300830Y-96890632D01*
X209311866Y-96872219D01*
X209324654Y-96854976D01*
X209339070Y-96839070D01*
X209354976Y-96824654D01*
X209372219Y-96811866D01*
X209390632Y-96800830D01*
X209410038Y-96791651D01*
X209430250Y-96784419D01*
X209451074Y-96779203D01*
X209472309Y-96776053D01*
X209493750Y-96775000D01*
X209931250Y-96775000D01*
X209952691Y-96776053D01*
X209952691Y-96776053D01*
G37*
D11*
X209712500Y-97250000D03*
G04 #@! TD*
D10*
G04 #@! TO.C,R11*
G36*
X209952691Y-98526053D02*
X209973926Y-98529203D01*
X209994750Y-98534419D01*
X210014962Y-98541651D01*
X210034368Y-98550830D01*
X210052781Y-98561866D01*
X210070024Y-98574654D01*
X210085930Y-98589070D01*
X210100346Y-98604976D01*
X210113134Y-98622219D01*
X210124170Y-98640632D01*
X210133349Y-98660038D01*
X210140581Y-98680250D01*
X210145797Y-98701074D01*
X210148947Y-98722309D01*
X210150000Y-98743750D01*
X210150000Y-99256250D01*
X210148947Y-99277691D01*
X210145797Y-99298926D01*
X210140581Y-99319750D01*
X210133349Y-99339962D01*
X210124170Y-99359368D01*
X210113134Y-99377781D01*
X210100346Y-99395024D01*
X210085930Y-99410930D01*
X210070024Y-99425346D01*
X210052781Y-99438134D01*
X210034368Y-99449170D01*
X210014962Y-99458349D01*
X209994750Y-99465581D01*
X209973926Y-99470797D01*
X209952691Y-99473947D01*
X209931250Y-99475000D01*
X209493750Y-99475000D01*
X209472309Y-99473947D01*
X209451074Y-99470797D01*
X209430250Y-99465581D01*
X209410038Y-99458349D01*
X209390632Y-99449170D01*
X209372219Y-99438134D01*
X209354976Y-99425346D01*
X209339070Y-99410930D01*
X209324654Y-99395024D01*
X209311866Y-99377781D01*
X209300830Y-99359368D01*
X209291651Y-99339962D01*
X209284419Y-99319750D01*
X209279203Y-99298926D01*
X209276053Y-99277691D01*
X209275000Y-99256250D01*
X209275000Y-98743750D01*
X209276053Y-98722309D01*
X209279203Y-98701074D01*
X209284419Y-98680250D01*
X209291651Y-98660038D01*
X209300830Y-98640632D01*
X209311866Y-98622219D01*
X209324654Y-98604976D01*
X209339070Y-98589070D01*
X209354976Y-98574654D01*
X209372219Y-98561866D01*
X209390632Y-98550830D01*
X209410038Y-98541651D01*
X209430250Y-98534419D01*
X209451074Y-98529203D01*
X209472309Y-98526053D01*
X209493750Y-98525000D01*
X209931250Y-98525000D01*
X209952691Y-98526053D01*
X209952691Y-98526053D01*
G37*
D11*
X209712500Y-99000000D03*
D10*
G36*
X211527691Y-98526053D02*
X211548926Y-98529203D01*
X211569750Y-98534419D01*
X211589962Y-98541651D01*
X211609368Y-98550830D01*
X211627781Y-98561866D01*
X211645024Y-98574654D01*
X211660930Y-98589070D01*
X211675346Y-98604976D01*
X211688134Y-98622219D01*
X211699170Y-98640632D01*
X211708349Y-98660038D01*
X211715581Y-98680250D01*
X211720797Y-98701074D01*
X211723947Y-98722309D01*
X211725000Y-98743750D01*
X211725000Y-99256250D01*
X211723947Y-99277691D01*
X211720797Y-99298926D01*
X211715581Y-99319750D01*
X211708349Y-99339962D01*
X211699170Y-99359368D01*
X211688134Y-99377781D01*
X211675346Y-99395024D01*
X211660930Y-99410930D01*
X211645024Y-99425346D01*
X211627781Y-99438134D01*
X211609368Y-99449170D01*
X211589962Y-99458349D01*
X211569750Y-99465581D01*
X211548926Y-99470797D01*
X211527691Y-99473947D01*
X211506250Y-99475000D01*
X211068750Y-99475000D01*
X211047309Y-99473947D01*
X211026074Y-99470797D01*
X211005250Y-99465581D01*
X210985038Y-99458349D01*
X210965632Y-99449170D01*
X210947219Y-99438134D01*
X210929976Y-99425346D01*
X210914070Y-99410930D01*
X210899654Y-99395024D01*
X210886866Y-99377781D01*
X210875830Y-99359368D01*
X210866651Y-99339962D01*
X210859419Y-99319750D01*
X210854203Y-99298926D01*
X210851053Y-99277691D01*
X210850000Y-99256250D01*
X210850000Y-98743750D01*
X210851053Y-98722309D01*
X210854203Y-98701074D01*
X210859419Y-98680250D01*
X210866651Y-98660038D01*
X210875830Y-98640632D01*
X210886866Y-98622219D01*
X210899654Y-98604976D01*
X210914070Y-98589070D01*
X210929976Y-98574654D01*
X210947219Y-98561866D01*
X210965632Y-98550830D01*
X210985038Y-98541651D01*
X211005250Y-98534419D01*
X211026074Y-98529203D01*
X211047309Y-98526053D01*
X211068750Y-98525000D01*
X211506250Y-98525000D01*
X211527691Y-98526053D01*
X211527691Y-98526053D01*
G37*
D11*
X211287500Y-99000000D03*
G04 #@! TD*
D10*
G04 #@! TO.C,R15*
G36*
X211565191Y-91526053D02*
X211586426Y-91529203D01*
X211607250Y-91534419D01*
X211627462Y-91541651D01*
X211646868Y-91550830D01*
X211665281Y-91561866D01*
X211682524Y-91574654D01*
X211698430Y-91589070D01*
X211712846Y-91604976D01*
X211725634Y-91622219D01*
X211736670Y-91640632D01*
X211745849Y-91660038D01*
X211753081Y-91680250D01*
X211758297Y-91701074D01*
X211761447Y-91722309D01*
X211762500Y-91743750D01*
X211762500Y-92256250D01*
X211761447Y-92277691D01*
X211758297Y-92298926D01*
X211753081Y-92319750D01*
X211745849Y-92339962D01*
X211736670Y-92359368D01*
X211725634Y-92377781D01*
X211712846Y-92395024D01*
X211698430Y-92410930D01*
X211682524Y-92425346D01*
X211665281Y-92438134D01*
X211646868Y-92449170D01*
X211627462Y-92458349D01*
X211607250Y-92465581D01*
X211586426Y-92470797D01*
X211565191Y-92473947D01*
X211543750Y-92475000D01*
X211106250Y-92475000D01*
X211084809Y-92473947D01*
X211063574Y-92470797D01*
X211042750Y-92465581D01*
X211022538Y-92458349D01*
X211003132Y-92449170D01*
X210984719Y-92438134D01*
X210967476Y-92425346D01*
X210951570Y-92410930D01*
X210937154Y-92395024D01*
X210924366Y-92377781D01*
X210913330Y-92359368D01*
X210904151Y-92339962D01*
X210896919Y-92319750D01*
X210891703Y-92298926D01*
X210888553Y-92277691D01*
X210887500Y-92256250D01*
X210887500Y-91743750D01*
X210888553Y-91722309D01*
X210891703Y-91701074D01*
X210896919Y-91680250D01*
X210904151Y-91660038D01*
X210913330Y-91640632D01*
X210924366Y-91622219D01*
X210937154Y-91604976D01*
X210951570Y-91589070D01*
X210967476Y-91574654D01*
X210984719Y-91561866D01*
X211003132Y-91550830D01*
X211022538Y-91541651D01*
X211042750Y-91534419D01*
X211063574Y-91529203D01*
X211084809Y-91526053D01*
X211106250Y-91525000D01*
X211543750Y-91525000D01*
X211565191Y-91526053D01*
X211565191Y-91526053D01*
G37*
D11*
X211325000Y-92000000D03*
D10*
G36*
X209990191Y-91526053D02*
X210011426Y-91529203D01*
X210032250Y-91534419D01*
X210052462Y-91541651D01*
X210071868Y-91550830D01*
X210090281Y-91561866D01*
X210107524Y-91574654D01*
X210123430Y-91589070D01*
X210137846Y-91604976D01*
X210150634Y-91622219D01*
X210161670Y-91640632D01*
X210170849Y-91660038D01*
X210178081Y-91680250D01*
X210183297Y-91701074D01*
X210186447Y-91722309D01*
X210187500Y-91743750D01*
X210187500Y-92256250D01*
X210186447Y-92277691D01*
X210183297Y-92298926D01*
X210178081Y-92319750D01*
X210170849Y-92339962D01*
X210161670Y-92359368D01*
X210150634Y-92377781D01*
X210137846Y-92395024D01*
X210123430Y-92410930D01*
X210107524Y-92425346D01*
X210090281Y-92438134D01*
X210071868Y-92449170D01*
X210052462Y-92458349D01*
X210032250Y-92465581D01*
X210011426Y-92470797D01*
X209990191Y-92473947D01*
X209968750Y-92475000D01*
X209531250Y-92475000D01*
X209509809Y-92473947D01*
X209488574Y-92470797D01*
X209467750Y-92465581D01*
X209447538Y-92458349D01*
X209428132Y-92449170D01*
X209409719Y-92438134D01*
X209392476Y-92425346D01*
X209376570Y-92410930D01*
X209362154Y-92395024D01*
X209349366Y-92377781D01*
X209338330Y-92359368D01*
X209329151Y-92339962D01*
X209321919Y-92319750D01*
X209316703Y-92298926D01*
X209313553Y-92277691D01*
X209312500Y-92256250D01*
X209312500Y-91743750D01*
X209313553Y-91722309D01*
X209316703Y-91701074D01*
X209321919Y-91680250D01*
X209329151Y-91660038D01*
X209338330Y-91640632D01*
X209349366Y-91622219D01*
X209362154Y-91604976D01*
X209376570Y-91589070D01*
X209392476Y-91574654D01*
X209409719Y-91561866D01*
X209428132Y-91550830D01*
X209447538Y-91541651D01*
X209467750Y-91534419D01*
X209488574Y-91529203D01*
X209509809Y-91526053D01*
X209531250Y-91525000D01*
X209968750Y-91525000D01*
X209990191Y-91526053D01*
X209990191Y-91526053D01*
G37*
D11*
X209750000Y-92000000D03*
G04 #@! TD*
D10*
G04 #@! TO.C,R16*
G36*
X209990191Y-89776053D02*
X210011426Y-89779203D01*
X210032250Y-89784419D01*
X210052462Y-89791651D01*
X210071868Y-89800830D01*
X210090281Y-89811866D01*
X210107524Y-89824654D01*
X210123430Y-89839070D01*
X210137846Y-89854976D01*
X210150634Y-89872219D01*
X210161670Y-89890632D01*
X210170849Y-89910038D01*
X210178081Y-89930250D01*
X210183297Y-89951074D01*
X210186447Y-89972309D01*
X210187500Y-89993750D01*
X210187500Y-90506250D01*
X210186447Y-90527691D01*
X210183297Y-90548926D01*
X210178081Y-90569750D01*
X210170849Y-90589962D01*
X210161670Y-90609368D01*
X210150634Y-90627781D01*
X210137846Y-90645024D01*
X210123430Y-90660930D01*
X210107524Y-90675346D01*
X210090281Y-90688134D01*
X210071868Y-90699170D01*
X210052462Y-90708349D01*
X210032250Y-90715581D01*
X210011426Y-90720797D01*
X209990191Y-90723947D01*
X209968750Y-90725000D01*
X209531250Y-90725000D01*
X209509809Y-90723947D01*
X209488574Y-90720797D01*
X209467750Y-90715581D01*
X209447538Y-90708349D01*
X209428132Y-90699170D01*
X209409719Y-90688134D01*
X209392476Y-90675346D01*
X209376570Y-90660930D01*
X209362154Y-90645024D01*
X209349366Y-90627781D01*
X209338330Y-90609368D01*
X209329151Y-90589962D01*
X209321919Y-90569750D01*
X209316703Y-90548926D01*
X209313553Y-90527691D01*
X209312500Y-90506250D01*
X209312500Y-89993750D01*
X209313553Y-89972309D01*
X209316703Y-89951074D01*
X209321919Y-89930250D01*
X209329151Y-89910038D01*
X209338330Y-89890632D01*
X209349366Y-89872219D01*
X209362154Y-89854976D01*
X209376570Y-89839070D01*
X209392476Y-89824654D01*
X209409719Y-89811866D01*
X209428132Y-89800830D01*
X209447538Y-89791651D01*
X209467750Y-89784419D01*
X209488574Y-89779203D01*
X209509809Y-89776053D01*
X209531250Y-89775000D01*
X209968750Y-89775000D01*
X209990191Y-89776053D01*
X209990191Y-89776053D01*
G37*
D11*
X209750000Y-90250000D03*
D10*
G36*
X211565191Y-89776053D02*
X211586426Y-89779203D01*
X211607250Y-89784419D01*
X211627462Y-89791651D01*
X211646868Y-89800830D01*
X211665281Y-89811866D01*
X211682524Y-89824654D01*
X211698430Y-89839070D01*
X211712846Y-89854976D01*
X211725634Y-89872219D01*
X211736670Y-89890632D01*
X211745849Y-89910038D01*
X211753081Y-89930250D01*
X211758297Y-89951074D01*
X211761447Y-89972309D01*
X211762500Y-89993750D01*
X211762500Y-90506250D01*
X211761447Y-90527691D01*
X211758297Y-90548926D01*
X211753081Y-90569750D01*
X211745849Y-90589962D01*
X211736670Y-90609368D01*
X211725634Y-90627781D01*
X211712846Y-90645024D01*
X211698430Y-90660930D01*
X211682524Y-90675346D01*
X211665281Y-90688134D01*
X211646868Y-90699170D01*
X211627462Y-90708349D01*
X211607250Y-90715581D01*
X211586426Y-90720797D01*
X211565191Y-90723947D01*
X211543750Y-90725000D01*
X211106250Y-90725000D01*
X211084809Y-90723947D01*
X211063574Y-90720797D01*
X211042750Y-90715581D01*
X211022538Y-90708349D01*
X211003132Y-90699170D01*
X210984719Y-90688134D01*
X210967476Y-90675346D01*
X210951570Y-90660930D01*
X210937154Y-90645024D01*
X210924366Y-90627781D01*
X210913330Y-90609368D01*
X210904151Y-90589962D01*
X210896919Y-90569750D01*
X210891703Y-90548926D01*
X210888553Y-90527691D01*
X210887500Y-90506250D01*
X210887500Y-89993750D01*
X210888553Y-89972309D01*
X210891703Y-89951074D01*
X210896919Y-89930250D01*
X210904151Y-89910038D01*
X210913330Y-89890632D01*
X210924366Y-89872219D01*
X210937154Y-89854976D01*
X210951570Y-89839070D01*
X210967476Y-89824654D01*
X210984719Y-89811866D01*
X211003132Y-89800830D01*
X211022538Y-89791651D01*
X211042750Y-89784419D01*
X211063574Y-89779203D01*
X211084809Y-89776053D01*
X211106250Y-89775000D01*
X211543750Y-89775000D01*
X211565191Y-89776053D01*
X211565191Y-89776053D01*
G37*
D11*
X211325000Y-90250000D03*
G04 #@! TD*
D10*
G04 #@! TO.C,R17*
G36*
X211527691Y-88026053D02*
X211548926Y-88029203D01*
X211569750Y-88034419D01*
X211589962Y-88041651D01*
X211609368Y-88050830D01*
X211627781Y-88061866D01*
X211645024Y-88074654D01*
X211660930Y-88089070D01*
X211675346Y-88104976D01*
X211688134Y-88122219D01*
X211699170Y-88140632D01*
X211708349Y-88160038D01*
X211715581Y-88180250D01*
X211720797Y-88201074D01*
X211723947Y-88222309D01*
X211725000Y-88243750D01*
X211725000Y-88756250D01*
X211723947Y-88777691D01*
X211720797Y-88798926D01*
X211715581Y-88819750D01*
X211708349Y-88839962D01*
X211699170Y-88859368D01*
X211688134Y-88877781D01*
X211675346Y-88895024D01*
X211660930Y-88910930D01*
X211645024Y-88925346D01*
X211627781Y-88938134D01*
X211609368Y-88949170D01*
X211589962Y-88958349D01*
X211569750Y-88965581D01*
X211548926Y-88970797D01*
X211527691Y-88973947D01*
X211506250Y-88975000D01*
X211068750Y-88975000D01*
X211047309Y-88973947D01*
X211026074Y-88970797D01*
X211005250Y-88965581D01*
X210985038Y-88958349D01*
X210965632Y-88949170D01*
X210947219Y-88938134D01*
X210929976Y-88925346D01*
X210914070Y-88910930D01*
X210899654Y-88895024D01*
X210886866Y-88877781D01*
X210875830Y-88859368D01*
X210866651Y-88839962D01*
X210859419Y-88819750D01*
X210854203Y-88798926D01*
X210851053Y-88777691D01*
X210850000Y-88756250D01*
X210850000Y-88243750D01*
X210851053Y-88222309D01*
X210854203Y-88201074D01*
X210859419Y-88180250D01*
X210866651Y-88160038D01*
X210875830Y-88140632D01*
X210886866Y-88122219D01*
X210899654Y-88104976D01*
X210914070Y-88089070D01*
X210929976Y-88074654D01*
X210947219Y-88061866D01*
X210965632Y-88050830D01*
X210985038Y-88041651D01*
X211005250Y-88034419D01*
X211026074Y-88029203D01*
X211047309Y-88026053D01*
X211068750Y-88025000D01*
X211506250Y-88025000D01*
X211527691Y-88026053D01*
X211527691Y-88026053D01*
G37*
D11*
X211287500Y-88500000D03*
D10*
G36*
X209952691Y-88026053D02*
X209973926Y-88029203D01*
X209994750Y-88034419D01*
X210014962Y-88041651D01*
X210034368Y-88050830D01*
X210052781Y-88061866D01*
X210070024Y-88074654D01*
X210085930Y-88089070D01*
X210100346Y-88104976D01*
X210113134Y-88122219D01*
X210124170Y-88140632D01*
X210133349Y-88160038D01*
X210140581Y-88180250D01*
X210145797Y-88201074D01*
X210148947Y-88222309D01*
X210150000Y-88243750D01*
X210150000Y-88756250D01*
X210148947Y-88777691D01*
X210145797Y-88798926D01*
X210140581Y-88819750D01*
X210133349Y-88839962D01*
X210124170Y-88859368D01*
X210113134Y-88877781D01*
X210100346Y-88895024D01*
X210085930Y-88910930D01*
X210070024Y-88925346D01*
X210052781Y-88938134D01*
X210034368Y-88949170D01*
X210014962Y-88958349D01*
X209994750Y-88965581D01*
X209973926Y-88970797D01*
X209952691Y-88973947D01*
X209931250Y-88975000D01*
X209493750Y-88975000D01*
X209472309Y-88973947D01*
X209451074Y-88970797D01*
X209430250Y-88965581D01*
X209410038Y-88958349D01*
X209390632Y-88949170D01*
X209372219Y-88938134D01*
X209354976Y-88925346D01*
X209339070Y-88910930D01*
X209324654Y-88895024D01*
X209311866Y-88877781D01*
X209300830Y-88859368D01*
X209291651Y-88839962D01*
X209284419Y-88819750D01*
X209279203Y-88798926D01*
X209276053Y-88777691D01*
X209275000Y-88756250D01*
X209275000Y-88243750D01*
X209276053Y-88222309D01*
X209279203Y-88201074D01*
X209284419Y-88180250D01*
X209291651Y-88160038D01*
X209300830Y-88140632D01*
X209311866Y-88122219D01*
X209324654Y-88104976D01*
X209339070Y-88089070D01*
X209354976Y-88074654D01*
X209372219Y-88061866D01*
X209390632Y-88050830D01*
X209410038Y-88041651D01*
X209430250Y-88034419D01*
X209451074Y-88029203D01*
X209472309Y-88026053D01*
X209493750Y-88025000D01*
X209931250Y-88025000D01*
X209952691Y-88026053D01*
X209952691Y-88026053D01*
G37*
D11*
X209712500Y-88500000D03*
G04 #@! TD*
D10*
G04 #@! TO.C,R18*
G36*
X209952691Y-86276053D02*
X209973926Y-86279203D01*
X209994750Y-86284419D01*
X210014962Y-86291651D01*
X210034368Y-86300830D01*
X210052781Y-86311866D01*
X210070024Y-86324654D01*
X210085930Y-86339070D01*
X210100346Y-86354976D01*
X210113134Y-86372219D01*
X210124170Y-86390632D01*
X210133349Y-86410038D01*
X210140581Y-86430250D01*
X210145797Y-86451074D01*
X210148947Y-86472309D01*
X210150000Y-86493750D01*
X210150000Y-87006250D01*
X210148947Y-87027691D01*
X210145797Y-87048926D01*
X210140581Y-87069750D01*
X210133349Y-87089962D01*
X210124170Y-87109368D01*
X210113134Y-87127781D01*
X210100346Y-87145024D01*
X210085930Y-87160930D01*
X210070024Y-87175346D01*
X210052781Y-87188134D01*
X210034368Y-87199170D01*
X210014962Y-87208349D01*
X209994750Y-87215581D01*
X209973926Y-87220797D01*
X209952691Y-87223947D01*
X209931250Y-87225000D01*
X209493750Y-87225000D01*
X209472309Y-87223947D01*
X209451074Y-87220797D01*
X209430250Y-87215581D01*
X209410038Y-87208349D01*
X209390632Y-87199170D01*
X209372219Y-87188134D01*
X209354976Y-87175346D01*
X209339070Y-87160930D01*
X209324654Y-87145024D01*
X209311866Y-87127781D01*
X209300830Y-87109368D01*
X209291651Y-87089962D01*
X209284419Y-87069750D01*
X209279203Y-87048926D01*
X209276053Y-87027691D01*
X209275000Y-87006250D01*
X209275000Y-86493750D01*
X209276053Y-86472309D01*
X209279203Y-86451074D01*
X209284419Y-86430250D01*
X209291651Y-86410038D01*
X209300830Y-86390632D01*
X209311866Y-86372219D01*
X209324654Y-86354976D01*
X209339070Y-86339070D01*
X209354976Y-86324654D01*
X209372219Y-86311866D01*
X209390632Y-86300830D01*
X209410038Y-86291651D01*
X209430250Y-86284419D01*
X209451074Y-86279203D01*
X209472309Y-86276053D01*
X209493750Y-86275000D01*
X209931250Y-86275000D01*
X209952691Y-86276053D01*
X209952691Y-86276053D01*
G37*
D11*
X209712500Y-86750000D03*
D10*
G36*
X211527691Y-86276053D02*
X211548926Y-86279203D01*
X211569750Y-86284419D01*
X211589962Y-86291651D01*
X211609368Y-86300830D01*
X211627781Y-86311866D01*
X211645024Y-86324654D01*
X211660930Y-86339070D01*
X211675346Y-86354976D01*
X211688134Y-86372219D01*
X211699170Y-86390632D01*
X211708349Y-86410038D01*
X211715581Y-86430250D01*
X211720797Y-86451074D01*
X211723947Y-86472309D01*
X211725000Y-86493750D01*
X211725000Y-87006250D01*
X211723947Y-87027691D01*
X211720797Y-87048926D01*
X211715581Y-87069750D01*
X211708349Y-87089962D01*
X211699170Y-87109368D01*
X211688134Y-87127781D01*
X211675346Y-87145024D01*
X211660930Y-87160930D01*
X211645024Y-87175346D01*
X211627781Y-87188134D01*
X211609368Y-87199170D01*
X211589962Y-87208349D01*
X211569750Y-87215581D01*
X211548926Y-87220797D01*
X211527691Y-87223947D01*
X211506250Y-87225000D01*
X211068750Y-87225000D01*
X211047309Y-87223947D01*
X211026074Y-87220797D01*
X211005250Y-87215581D01*
X210985038Y-87208349D01*
X210965632Y-87199170D01*
X210947219Y-87188134D01*
X210929976Y-87175346D01*
X210914070Y-87160930D01*
X210899654Y-87145024D01*
X210886866Y-87127781D01*
X210875830Y-87109368D01*
X210866651Y-87089962D01*
X210859419Y-87069750D01*
X210854203Y-87048926D01*
X210851053Y-87027691D01*
X210850000Y-87006250D01*
X210850000Y-86493750D01*
X210851053Y-86472309D01*
X210854203Y-86451074D01*
X210859419Y-86430250D01*
X210866651Y-86410038D01*
X210875830Y-86390632D01*
X210886866Y-86372219D01*
X210899654Y-86354976D01*
X210914070Y-86339070D01*
X210929976Y-86324654D01*
X210947219Y-86311866D01*
X210965632Y-86300830D01*
X210985038Y-86291651D01*
X211005250Y-86284419D01*
X211026074Y-86279203D01*
X211047309Y-86276053D01*
X211068750Y-86275000D01*
X211506250Y-86275000D01*
X211527691Y-86276053D01*
X211527691Y-86276053D01*
G37*
D11*
X211287500Y-86750000D03*
G04 #@! TD*
D10*
G04 #@! TO.C,R14*
G36*
X211527691Y-93276053D02*
X211548926Y-93279203D01*
X211569750Y-93284419D01*
X211589962Y-93291651D01*
X211609368Y-93300830D01*
X211627781Y-93311866D01*
X211645024Y-93324654D01*
X211660930Y-93339070D01*
X211675346Y-93354976D01*
X211688134Y-93372219D01*
X211699170Y-93390632D01*
X211708349Y-93410038D01*
X211715581Y-93430250D01*
X211720797Y-93451074D01*
X211723947Y-93472309D01*
X211725000Y-93493750D01*
X211725000Y-94006250D01*
X211723947Y-94027691D01*
X211720797Y-94048926D01*
X211715581Y-94069750D01*
X211708349Y-94089962D01*
X211699170Y-94109368D01*
X211688134Y-94127781D01*
X211675346Y-94145024D01*
X211660930Y-94160930D01*
X211645024Y-94175346D01*
X211627781Y-94188134D01*
X211609368Y-94199170D01*
X211589962Y-94208349D01*
X211569750Y-94215581D01*
X211548926Y-94220797D01*
X211527691Y-94223947D01*
X211506250Y-94225000D01*
X211068750Y-94225000D01*
X211047309Y-94223947D01*
X211026074Y-94220797D01*
X211005250Y-94215581D01*
X210985038Y-94208349D01*
X210965632Y-94199170D01*
X210947219Y-94188134D01*
X210929976Y-94175346D01*
X210914070Y-94160930D01*
X210899654Y-94145024D01*
X210886866Y-94127781D01*
X210875830Y-94109368D01*
X210866651Y-94089962D01*
X210859419Y-94069750D01*
X210854203Y-94048926D01*
X210851053Y-94027691D01*
X210850000Y-94006250D01*
X210850000Y-93493750D01*
X210851053Y-93472309D01*
X210854203Y-93451074D01*
X210859419Y-93430250D01*
X210866651Y-93410038D01*
X210875830Y-93390632D01*
X210886866Y-93372219D01*
X210899654Y-93354976D01*
X210914070Y-93339070D01*
X210929976Y-93324654D01*
X210947219Y-93311866D01*
X210965632Y-93300830D01*
X210985038Y-93291651D01*
X211005250Y-93284419D01*
X211026074Y-93279203D01*
X211047309Y-93276053D01*
X211068750Y-93275000D01*
X211506250Y-93275000D01*
X211527691Y-93276053D01*
X211527691Y-93276053D01*
G37*
D11*
X211287500Y-93750000D03*
D10*
G36*
X209952691Y-93276053D02*
X209973926Y-93279203D01*
X209994750Y-93284419D01*
X210014962Y-93291651D01*
X210034368Y-93300830D01*
X210052781Y-93311866D01*
X210070024Y-93324654D01*
X210085930Y-93339070D01*
X210100346Y-93354976D01*
X210113134Y-93372219D01*
X210124170Y-93390632D01*
X210133349Y-93410038D01*
X210140581Y-93430250D01*
X210145797Y-93451074D01*
X210148947Y-93472309D01*
X210150000Y-93493750D01*
X210150000Y-94006250D01*
X210148947Y-94027691D01*
X210145797Y-94048926D01*
X210140581Y-94069750D01*
X210133349Y-94089962D01*
X210124170Y-94109368D01*
X210113134Y-94127781D01*
X210100346Y-94145024D01*
X210085930Y-94160930D01*
X210070024Y-94175346D01*
X210052781Y-94188134D01*
X210034368Y-94199170D01*
X210014962Y-94208349D01*
X209994750Y-94215581D01*
X209973926Y-94220797D01*
X209952691Y-94223947D01*
X209931250Y-94225000D01*
X209493750Y-94225000D01*
X209472309Y-94223947D01*
X209451074Y-94220797D01*
X209430250Y-94215581D01*
X209410038Y-94208349D01*
X209390632Y-94199170D01*
X209372219Y-94188134D01*
X209354976Y-94175346D01*
X209339070Y-94160930D01*
X209324654Y-94145024D01*
X209311866Y-94127781D01*
X209300830Y-94109368D01*
X209291651Y-94089962D01*
X209284419Y-94069750D01*
X209279203Y-94048926D01*
X209276053Y-94027691D01*
X209275000Y-94006250D01*
X209275000Y-93493750D01*
X209276053Y-93472309D01*
X209279203Y-93451074D01*
X209284419Y-93430250D01*
X209291651Y-93410038D01*
X209300830Y-93390632D01*
X209311866Y-93372219D01*
X209324654Y-93354976D01*
X209339070Y-93339070D01*
X209354976Y-93324654D01*
X209372219Y-93311866D01*
X209390632Y-93300830D01*
X209410038Y-93291651D01*
X209430250Y-93284419D01*
X209451074Y-93279203D01*
X209472309Y-93276053D01*
X209493750Y-93275000D01*
X209931250Y-93275000D01*
X209952691Y-93276053D01*
X209952691Y-93276053D01*
G37*
D11*
X209712500Y-93750000D03*
G04 #@! TD*
D10*
G04 #@! TO.C,R19*
G36*
X219492691Y-143913553D02*
X219513926Y-143916703D01*
X219534750Y-143921919D01*
X219554962Y-143929151D01*
X219574368Y-143938330D01*
X219592781Y-143949366D01*
X219610024Y-143962154D01*
X219625930Y-143976570D01*
X219640346Y-143992476D01*
X219653134Y-144009719D01*
X219664170Y-144028132D01*
X219673349Y-144047538D01*
X219680581Y-144067750D01*
X219685797Y-144088574D01*
X219688947Y-144109809D01*
X219690000Y-144131250D01*
X219690000Y-144568750D01*
X219688947Y-144590191D01*
X219685797Y-144611426D01*
X219680581Y-144632250D01*
X219673349Y-144652462D01*
X219664170Y-144671868D01*
X219653134Y-144690281D01*
X219640346Y-144707524D01*
X219625930Y-144723430D01*
X219610024Y-144737846D01*
X219592781Y-144750634D01*
X219574368Y-144761670D01*
X219554962Y-144770849D01*
X219534750Y-144778081D01*
X219513926Y-144783297D01*
X219492691Y-144786447D01*
X219471250Y-144787500D01*
X218958750Y-144787500D01*
X218937309Y-144786447D01*
X218916074Y-144783297D01*
X218895250Y-144778081D01*
X218875038Y-144770849D01*
X218855632Y-144761670D01*
X218837219Y-144750634D01*
X218819976Y-144737846D01*
X218804070Y-144723430D01*
X218789654Y-144707524D01*
X218776866Y-144690281D01*
X218765830Y-144671868D01*
X218756651Y-144652462D01*
X218749419Y-144632250D01*
X218744203Y-144611426D01*
X218741053Y-144590191D01*
X218740000Y-144568750D01*
X218740000Y-144131250D01*
X218741053Y-144109809D01*
X218744203Y-144088574D01*
X218749419Y-144067750D01*
X218756651Y-144047538D01*
X218765830Y-144028132D01*
X218776866Y-144009719D01*
X218789654Y-143992476D01*
X218804070Y-143976570D01*
X218819976Y-143962154D01*
X218837219Y-143949366D01*
X218855632Y-143938330D01*
X218875038Y-143929151D01*
X218895250Y-143921919D01*
X218916074Y-143916703D01*
X218937309Y-143913553D01*
X218958750Y-143912500D01*
X219471250Y-143912500D01*
X219492691Y-143913553D01*
X219492691Y-143913553D01*
G37*
D11*
X219215000Y-144350000D03*
D10*
G36*
X219492691Y-142338553D02*
X219513926Y-142341703D01*
X219534750Y-142346919D01*
X219554962Y-142354151D01*
X219574368Y-142363330D01*
X219592781Y-142374366D01*
X219610024Y-142387154D01*
X219625930Y-142401570D01*
X219640346Y-142417476D01*
X219653134Y-142434719D01*
X219664170Y-142453132D01*
X219673349Y-142472538D01*
X219680581Y-142492750D01*
X219685797Y-142513574D01*
X219688947Y-142534809D01*
X219690000Y-142556250D01*
X219690000Y-142993750D01*
X219688947Y-143015191D01*
X219685797Y-143036426D01*
X219680581Y-143057250D01*
X219673349Y-143077462D01*
X219664170Y-143096868D01*
X219653134Y-143115281D01*
X219640346Y-143132524D01*
X219625930Y-143148430D01*
X219610024Y-143162846D01*
X219592781Y-143175634D01*
X219574368Y-143186670D01*
X219554962Y-143195849D01*
X219534750Y-143203081D01*
X219513926Y-143208297D01*
X219492691Y-143211447D01*
X219471250Y-143212500D01*
X218958750Y-143212500D01*
X218937309Y-143211447D01*
X218916074Y-143208297D01*
X218895250Y-143203081D01*
X218875038Y-143195849D01*
X218855632Y-143186670D01*
X218837219Y-143175634D01*
X218819976Y-143162846D01*
X218804070Y-143148430D01*
X218789654Y-143132524D01*
X218776866Y-143115281D01*
X218765830Y-143096868D01*
X218756651Y-143077462D01*
X218749419Y-143057250D01*
X218744203Y-143036426D01*
X218741053Y-143015191D01*
X218740000Y-142993750D01*
X218740000Y-142556250D01*
X218741053Y-142534809D01*
X218744203Y-142513574D01*
X218749419Y-142492750D01*
X218756651Y-142472538D01*
X218765830Y-142453132D01*
X218776866Y-142434719D01*
X218789654Y-142417476D01*
X218804070Y-142401570D01*
X218819976Y-142387154D01*
X218837219Y-142374366D01*
X218855632Y-142363330D01*
X218875038Y-142354151D01*
X218895250Y-142346919D01*
X218916074Y-142341703D01*
X218937309Y-142338553D01*
X218958750Y-142337500D01*
X219471250Y-142337500D01*
X219492691Y-142338553D01*
X219492691Y-142338553D01*
G37*
D11*
X219215000Y-142775000D03*
G04 #@! TD*
D10*
G04 #@! TO.C,C16*
G36*
X212452691Y-128376053D02*
X212473926Y-128379203D01*
X212494750Y-128384419D01*
X212514962Y-128391651D01*
X212534368Y-128400830D01*
X212552781Y-128411866D01*
X212570024Y-128424654D01*
X212585930Y-128439070D01*
X212600346Y-128454976D01*
X212613134Y-128472219D01*
X212624170Y-128490632D01*
X212633349Y-128510038D01*
X212640581Y-128530250D01*
X212645797Y-128551074D01*
X212648947Y-128572309D01*
X212650000Y-128593750D01*
X212650000Y-129031250D01*
X212648947Y-129052691D01*
X212645797Y-129073926D01*
X212640581Y-129094750D01*
X212633349Y-129114962D01*
X212624170Y-129134368D01*
X212613134Y-129152781D01*
X212600346Y-129170024D01*
X212585930Y-129185930D01*
X212570024Y-129200346D01*
X212552781Y-129213134D01*
X212534368Y-129224170D01*
X212514962Y-129233349D01*
X212494750Y-129240581D01*
X212473926Y-129245797D01*
X212452691Y-129248947D01*
X212431250Y-129250000D01*
X211918750Y-129250000D01*
X211897309Y-129248947D01*
X211876074Y-129245797D01*
X211855250Y-129240581D01*
X211835038Y-129233349D01*
X211815632Y-129224170D01*
X211797219Y-129213134D01*
X211779976Y-129200346D01*
X211764070Y-129185930D01*
X211749654Y-129170024D01*
X211736866Y-129152781D01*
X211725830Y-129134368D01*
X211716651Y-129114962D01*
X211709419Y-129094750D01*
X211704203Y-129073926D01*
X211701053Y-129052691D01*
X211700000Y-129031250D01*
X211700000Y-128593750D01*
X211701053Y-128572309D01*
X211704203Y-128551074D01*
X211709419Y-128530250D01*
X211716651Y-128510038D01*
X211725830Y-128490632D01*
X211736866Y-128472219D01*
X211749654Y-128454976D01*
X211764070Y-128439070D01*
X211779976Y-128424654D01*
X211797219Y-128411866D01*
X211815632Y-128400830D01*
X211835038Y-128391651D01*
X211855250Y-128384419D01*
X211876074Y-128379203D01*
X211897309Y-128376053D01*
X211918750Y-128375000D01*
X212431250Y-128375000D01*
X212452691Y-128376053D01*
X212452691Y-128376053D01*
G37*
D11*
X212175000Y-128812500D03*
D10*
G36*
X212452691Y-129951053D02*
X212473926Y-129954203D01*
X212494750Y-129959419D01*
X212514962Y-129966651D01*
X212534368Y-129975830D01*
X212552781Y-129986866D01*
X212570024Y-129999654D01*
X212585930Y-130014070D01*
X212600346Y-130029976D01*
X212613134Y-130047219D01*
X212624170Y-130065632D01*
X212633349Y-130085038D01*
X212640581Y-130105250D01*
X212645797Y-130126074D01*
X212648947Y-130147309D01*
X212650000Y-130168750D01*
X212650000Y-130606250D01*
X212648947Y-130627691D01*
X212645797Y-130648926D01*
X212640581Y-130669750D01*
X212633349Y-130689962D01*
X212624170Y-130709368D01*
X212613134Y-130727781D01*
X212600346Y-130745024D01*
X212585930Y-130760930D01*
X212570024Y-130775346D01*
X212552781Y-130788134D01*
X212534368Y-130799170D01*
X212514962Y-130808349D01*
X212494750Y-130815581D01*
X212473926Y-130820797D01*
X212452691Y-130823947D01*
X212431250Y-130825000D01*
X211918750Y-130825000D01*
X211897309Y-130823947D01*
X211876074Y-130820797D01*
X211855250Y-130815581D01*
X211835038Y-130808349D01*
X211815632Y-130799170D01*
X211797219Y-130788134D01*
X211779976Y-130775346D01*
X211764070Y-130760930D01*
X211749654Y-130745024D01*
X211736866Y-130727781D01*
X211725830Y-130709368D01*
X211716651Y-130689962D01*
X211709419Y-130669750D01*
X211704203Y-130648926D01*
X211701053Y-130627691D01*
X211700000Y-130606250D01*
X211700000Y-130168750D01*
X211701053Y-130147309D01*
X211704203Y-130126074D01*
X211709419Y-130105250D01*
X211716651Y-130085038D01*
X211725830Y-130065632D01*
X211736866Y-130047219D01*
X211749654Y-130029976D01*
X211764070Y-130014070D01*
X211779976Y-129999654D01*
X211797219Y-129986866D01*
X211815632Y-129975830D01*
X211835038Y-129966651D01*
X211855250Y-129959419D01*
X211876074Y-129954203D01*
X211897309Y-129951053D01*
X211918750Y-129950000D01*
X212431250Y-129950000D01*
X212452691Y-129951053D01*
X212452691Y-129951053D01*
G37*
D11*
X212175000Y-130387500D03*
G04 #@! TD*
D10*
G04 #@! TO.C,C4*
G36*
X198320586Y-83867202D02*
X198341821Y-83870352D01*
X198362645Y-83875568D01*
X198382857Y-83882800D01*
X198402263Y-83891979D01*
X198420676Y-83903015D01*
X198437919Y-83915803D01*
X198453825Y-83930219D01*
X198468241Y-83946125D01*
X198481029Y-83963368D01*
X198492065Y-83981781D01*
X198501244Y-84001187D01*
X198508476Y-84021399D01*
X198513692Y-84042223D01*
X198516842Y-84063458D01*
X198517895Y-84084899D01*
X198517895Y-84597399D01*
X198516842Y-84618840D01*
X198513692Y-84640075D01*
X198508476Y-84660899D01*
X198501244Y-84681111D01*
X198492065Y-84700517D01*
X198481029Y-84718930D01*
X198468241Y-84736173D01*
X198453825Y-84752079D01*
X198437919Y-84766495D01*
X198420676Y-84779283D01*
X198402263Y-84790319D01*
X198382857Y-84799498D01*
X198362645Y-84806730D01*
X198341821Y-84811946D01*
X198320586Y-84815096D01*
X198299145Y-84816149D01*
X197861645Y-84816149D01*
X197840204Y-84815096D01*
X197818969Y-84811946D01*
X197798145Y-84806730D01*
X197777933Y-84799498D01*
X197758527Y-84790319D01*
X197740114Y-84779283D01*
X197722871Y-84766495D01*
X197706965Y-84752079D01*
X197692549Y-84736173D01*
X197679761Y-84718930D01*
X197668725Y-84700517D01*
X197659546Y-84681111D01*
X197652314Y-84660899D01*
X197647098Y-84640075D01*
X197643948Y-84618840D01*
X197642895Y-84597399D01*
X197642895Y-84084899D01*
X197643948Y-84063458D01*
X197647098Y-84042223D01*
X197652314Y-84021399D01*
X197659546Y-84001187D01*
X197668725Y-83981781D01*
X197679761Y-83963368D01*
X197692549Y-83946125D01*
X197706965Y-83930219D01*
X197722871Y-83915803D01*
X197740114Y-83903015D01*
X197758527Y-83891979D01*
X197777933Y-83882800D01*
X197798145Y-83875568D01*
X197818969Y-83870352D01*
X197840204Y-83867202D01*
X197861645Y-83866149D01*
X198299145Y-83866149D01*
X198320586Y-83867202D01*
X198320586Y-83867202D01*
G37*
D11*
X198080395Y-84341149D03*
D10*
G36*
X199895586Y-83867202D02*
X199916821Y-83870352D01*
X199937645Y-83875568D01*
X199957857Y-83882800D01*
X199977263Y-83891979D01*
X199995676Y-83903015D01*
X200012919Y-83915803D01*
X200028825Y-83930219D01*
X200043241Y-83946125D01*
X200056029Y-83963368D01*
X200067065Y-83981781D01*
X200076244Y-84001187D01*
X200083476Y-84021399D01*
X200088692Y-84042223D01*
X200091842Y-84063458D01*
X200092895Y-84084899D01*
X200092895Y-84597399D01*
X200091842Y-84618840D01*
X200088692Y-84640075D01*
X200083476Y-84660899D01*
X200076244Y-84681111D01*
X200067065Y-84700517D01*
X200056029Y-84718930D01*
X200043241Y-84736173D01*
X200028825Y-84752079D01*
X200012919Y-84766495D01*
X199995676Y-84779283D01*
X199977263Y-84790319D01*
X199957857Y-84799498D01*
X199937645Y-84806730D01*
X199916821Y-84811946D01*
X199895586Y-84815096D01*
X199874145Y-84816149D01*
X199436645Y-84816149D01*
X199415204Y-84815096D01*
X199393969Y-84811946D01*
X199373145Y-84806730D01*
X199352933Y-84799498D01*
X199333527Y-84790319D01*
X199315114Y-84779283D01*
X199297871Y-84766495D01*
X199281965Y-84752079D01*
X199267549Y-84736173D01*
X199254761Y-84718930D01*
X199243725Y-84700517D01*
X199234546Y-84681111D01*
X199227314Y-84660899D01*
X199222098Y-84640075D01*
X199218948Y-84618840D01*
X199217895Y-84597399D01*
X199217895Y-84084899D01*
X199218948Y-84063458D01*
X199222098Y-84042223D01*
X199227314Y-84021399D01*
X199234546Y-84001187D01*
X199243725Y-83981781D01*
X199254761Y-83963368D01*
X199267549Y-83946125D01*
X199281965Y-83930219D01*
X199297871Y-83915803D01*
X199315114Y-83903015D01*
X199333527Y-83891979D01*
X199352933Y-83882800D01*
X199373145Y-83875568D01*
X199393969Y-83870352D01*
X199415204Y-83867202D01*
X199436645Y-83866149D01*
X199874145Y-83866149D01*
X199895586Y-83867202D01*
X199895586Y-83867202D01*
G37*
D11*
X199655395Y-84341149D03*
G04 #@! TD*
D10*
G04 #@! TO.C,C8*
G36*
X199895586Y-81910053D02*
X199916821Y-81913203D01*
X199937645Y-81918419D01*
X199957857Y-81925651D01*
X199977263Y-81934830D01*
X199995676Y-81945866D01*
X200012919Y-81958654D01*
X200028825Y-81973070D01*
X200043241Y-81988976D01*
X200056029Y-82006219D01*
X200067065Y-82024632D01*
X200076244Y-82044038D01*
X200083476Y-82064250D01*
X200088692Y-82085074D01*
X200091842Y-82106309D01*
X200092895Y-82127750D01*
X200092895Y-82640250D01*
X200091842Y-82661691D01*
X200088692Y-82682926D01*
X200083476Y-82703750D01*
X200076244Y-82723962D01*
X200067065Y-82743368D01*
X200056029Y-82761781D01*
X200043241Y-82779024D01*
X200028825Y-82794930D01*
X200012919Y-82809346D01*
X199995676Y-82822134D01*
X199977263Y-82833170D01*
X199957857Y-82842349D01*
X199937645Y-82849581D01*
X199916821Y-82854797D01*
X199895586Y-82857947D01*
X199874145Y-82859000D01*
X199436645Y-82859000D01*
X199415204Y-82857947D01*
X199393969Y-82854797D01*
X199373145Y-82849581D01*
X199352933Y-82842349D01*
X199333527Y-82833170D01*
X199315114Y-82822134D01*
X199297871Y-82809346D01*
X199281965Y-82794930D01*
X199267549Y-82779024D01*
X199254761Y-82761781D01*
X199243725Y-82743368D01*
X199234546Y-82723962D01*
X199227314Y-82703750D01*
X199222098Y-82682926D01*
X199218948Y-82661691D01*
X199217895Y-82640250D01*
X199217895Y-82127750D01*
X199218948Y-82106309D01*
X199222098Y-82085074D01*
X199227314Y-82064250D01*
X199234546Y-82044038D01*
X199243725Y-82024632D01*
X199254761Y-82006219D01*
X199267549Y-81988976D01*
X199281965Y-81973070D01*
X199297871Y-81958654D01*
X199315114Y-81945866D01*
X199333527Y-81934830D01*
X199352933Y-81925651D01*
X199373145Y-81918419D01*
X199393969Y-81913203D01*
X199415204Y-81910053D01*
X199436645Y-81909000D01*
X199874145Y-81909000D01*
X199895586Y-81910053D01*
X199895586Y-81910053D01*
G37*
D11*
X199655395Y-82384000D03*
D10*
G36*
X198320586Y-81910053D02*
X198341821Y-81913203D01*
X198362645Y-81918419D01*
X198382857Y-81925651D01*
X198402263Y-81934830D01*
X198420676Y-81945866D01*
X198437919Y-81958654D01*
X198453825Y-81973070D01*
X198468241Y-81988976D01*
X198481029Y-82006219D01*
X198492065Y-82024632D01*
X198501244Y-82044038D01*
X198508476Y-82064250D01*
X198513692Y-82085074D01*
X198516842Y-82106309D01*
X198517895Y-82127750D01*
X198517895Y-82640250D01*
X198516842Y-82661691D01*
X198513692Y-82682926D01*
X198508476Y-82703750D01*
X198501244Y-82723962D01*
X198492065Y-82743368D01*
X198481029Y-82761781D01*
X198468241Y-82779024D01*
X198453825Y-82794930D01*
X198437919Y-82809346D01*
X198420676Y-82822134D01*
X198402263Y-82833170D01*
X198382857Y-82842349D01*
X198362645Y-82849581D01*
X198341821Y-82854797D01*
X198320586Y-82857947D01*
X198299145Y-82859000D01*
X197861645Y-82859000D01*
X197840204Y-82857947D01*
X197818969Y-82854797D01*
X197798145Y-82849581D01*
X197777933Y-82842349D01*
X197758527Y-82833170D01*
X197740114Y-82822134D01*
X197722871Y-82809346D01*
X197706965Y-82794930D01*
X197692549Y-82779024D01*
X197679761Y-82761781D01*
X197668725Y-82743368D01*
X197659546Y-82723962D01*
X197652314Y-82703750D01*
X197647098Y-82682926D01*
X197643948Y-82661691D01*
X197642895Y-82640250D01*
X197642895Y-82127750D01*
X197643948Y-82106309D01*
X197647098Y-82085074D01*
X197652314Y-82064250D01*
X197659546Y-82044038D01*
X197668725Y-82024632D01*
X197679761Y-82006219D01*
X197692549Y-81988976D01*
X197706965Y-81973070D01*
X197722871Y-81958654D01*
X197740114Y-81945866D01*
X197758527Y-81934830D01*
X197777933Y-81925651D01*
X197798145Y-81918419D01*
X197818969Y-81913203D01*
X197840204Y-81910053D01*
X197861645Y-81909000D01*
X198299145Y-81909000D01*
X198320586Y-81910053D01*
X198320586Y-81910053D01*
G37*
D11*
X198080395Y-82384000D03*
G04 #@! TD*
D10*
G04 #@! TO.C,D6*
G36*
X181861691Y-81060053D02*
X181882926Y-81063203D01*
X181903750Y-81068419D01*
X181923962Y-81075651D01*
X181943368Y-81084830D01*
X181961781Y-81095866D01*
X181979024Y-81108654D01*
X181994930Y-81123070D01*
X182009346Y-81138976D01*
X182022134Y-81156219D01*
X182033170Y-81174632D01*
X182042349Y-81194038D01*
X182049581Y-81214250D01*
X182054797Y-81235074D01*
X182057947Y-81256309D01*
X182059000Y-81277750D01*
X182059000Y-81790250D01*
X182057947Y-81811691D01*
X182054797Y-81832926D01*
X182049581Y-81853750D01*
X182042349Y-81873962D01*
X182033170Y-81893368D01*
X182022134Y-81911781D01*
X182009346Y-81929024D01*
X181994930Y-81944930D01*
X181979024Y-81959346D01*
X181961781Y-81972134D01*
X181943368Y-81983170D01*
X181923962Y-81992349D01*
X181903750Y-81999581D01*
X181882926Y-82004797D01*
X181861691Y-82007947D01*
X181840250Y-82009000D01*
X181402750Y-82009000D01*
X181381309Y-82007947D01*
X181360074Y-82004797D01*
X181339250Y-81999581D01*
X181319038Y-81992349D01*
X181299632Y-81983170D01*
X181281219Y-81972134D01*
X181263976Y-81959346D01*
X181248070Y-81944930D01*
X181233654Y-81929024D01*
X181220866Y-81911781D01*
X181209830Y-81893368D01*
X181200651Y-81873962D01*
X181193419Y-81853750D01*
X181188203Y-81832926D01*
X181185053Y-81811691D01*
X181184000Y-81790250D01*
X181184000Y-81277750D01*
X181185053Y-81256309D01*
X181188203Y-81235074D01*
X181193419Y-81214250D01*
X181200651Y-81194038D01*
X181209830Y-81174632D01*
X181220866Y-81156219D01*
X181233654Y-81138976D01*
X181248070Y-81123070D01*
X181263976Y-81108654D01*
X181281219Y-81095866D01*
X181299632Y-81084830D01*
X181319038Y-81075651D01*
X181339250Y-81068419D01*
X181360074Y-81063203D01*
X181381309Y-81060053D01*
X181402750Y-81059000D01*
X181840250Y-81059000D01*
X181861691Y-81060053D01*
X181861691Y-81060053D01*
G37*
D11*
X181621500Y-81534000D03*
D10*
G36*
X183436691Y-81060053D02*
X183457926Y-81063203D01*
X183478750Y-81068419D01*
X183498962Y-81075651D01*
X183518368Y-81084830D01*
X183536781Y-81095866D01*
X183554024Y-81108654D01*
X183569930Y-81123070D01*
X183584346Y-81138976D01*
X183597134Y-81156219D01*
X183608170Y-81174632D01*
X183617349Y-81194038D01*
X183624581Y-81214250D01*
X183629797Y-81235074D01*
X183632947Y-81256309D01*
X183634000Y-81277750D01*
X183634000Y-81790250D01*
X183632947Y-81811691D01*
X183629797Y-81832926D01*
X183624581Y-81853750D01*
X183617349Y-81873962D01*
X183608170Y-81893368D01*
X183597134Y-81911781D01*
X183584346Y-81929024D01*
X183569930Y-81944930D01*
X183554024Y-81959346D01*
X183536781Y-81972134D01*
X183518368Y-81983170D01*
X183498962Y-81992349D01*
X183478750Y-81999581D01*
X183457926Y-82004797D01*
X183436691Y-82007947D01*
X183415250Y-82009000D01*
X182977750Y-82009000D01*
X182956309Y-82007947D01*
X182935074Y-82004797D01*
X182914250Y-81999581D01*
X182894038Y-81992349D01*
X182874632Y-81983170D01*
X182856219Y-81972134D01*
X182838976Y-81959346D01*
X182823070Y-81944930D01*
X182808654Y-81929024D01*
X182795866Y-81911781D01*
X182784830Y-81893368D01*
X182775651Y-81873962D01*
X182768419Y-81853750D01*
X182763203Y-81832926D01*
X182760053Y-81811691D01*
X182759000Y-81790250D01*
X182759000Y-81277750D01*
X182760053Y-81256309D01*
X182763203Y-81235074D01*
X182768419Y-81214250D01*
X182775651Y-81194038D01*
X182784830Y-81174632D01*
X182795866Y-81156219D01*
X182808654Y-81138976D01*
X182823070Y-81123070D01*
X182838976Y-81108654D01*
X182856219Y-81095866D01*
X182874632Y-81084830D01*
X182894038Y-81075651D01*
X182914250Y-81068419D01*
X182935074Y-81063203D01*
X182956309Y-81060053D01*
X182977750Y-81059000D01*
X183415250Y-81059000D01*
X183436691Y-81060053D01*
X183436691Y-81060053D01*
G37*
D11*
X183196500Y-81534000D03*
G04 #@! TD*
D10*
G04 #@! TO.C,D7*
G36*
X183436691Y-78520053D02*
X183457926Y-78523203D01*
X183478750Y-78528419D01*
X183498962Y-78535651D01*
X183518368Y-78544830D01*
X183536781Y-78555866D01*
X183554024Y-78568654D01*
X183569930Y-78583070D01*
X183584346Y-78598976D01*
X183597134Y-78616219D01*
X183608170Y-78634632D01*
X183617349Y-78654038D01*
X183624581Y-78674250D01*
X183629797Y-78695074D01*
X183632947Y-78716309D01*
X183634000Y-78737750D01*
X183634000Y-79250250D01*
X183632947Y-79271691D01*
X183629797Y-79292926D01*
X183624581Y-79313750D01*
X183617349Y-79333962D01*
X183608170Y-79353368D01*
X183597134Y-79371781D01*
X183584346Y-79389024D01*
X183569930Y-79404930D01*
X183554024Y-79419346D01*
X183536781Y-79432134D01*
X183518368Y-79443170D01*
X183498962Y-79452349D01*
X183478750Y-79459581D01*
X183457926Y-79464797D01*
X183436691Y-79467947D01*
X183415250Y-79469000D01*
X182977750Y-79469000D01*
X182956309Y-79467947D01*
X182935074Y-79464797D01*
X182914250Y-79459581D01*
X182894038Y-79452349D01*
X182874632Y-79443170D01*
X182856219Y-79432134D01*
X182838976Y-79419346D01*
X182823070Y-79404930D01*
X182808654Y-79389024D01*
X182795866Y-79371781D01*
X182784830Y-79353368D01*
X182775651Y-79333962D01*
X182768419Y-79313750D01*
X182763203Y-79292926D01*
X182760053Y-79271691D01*
X182759000Y-79250250D01*
X182759000Y-78737750D01*
X182760053Y-78716309D01*
X182763203Y-78695074D01*
X182768419Y-78674250D01*
X182775651Y-78654038D01*
X182784830Y-78634632D01*
X182795866Y-78616219D01*
X182808654Y-78598976D01*
X182823070Y-78583070D01*
X182838976Y-78568654D01*
X182856219Y-78555866D01*
X182874632Y-78544830D01*
X182894038Y-78535651D01*
X182914250Y-78528419D01*
X182935074Y-78523203D01*
X182956309Y-78520053D01*
X182977750Y-78519000D01*
X183415250Y-78519000D01*
X183436691Y-78520053D01*
X183436691Y-78520053D01*
G37*
D11*
X183196500Y-78994000D03*
D10*
G36*
X181861691Y-78520053D02*
X181882926Y-78523203D01*
X181903750Y-78528419D01*
X181923962Y-78535651D01*
X181943368Y-78544830D01*
X181961781Y-78555866D01*
X181979024Y-78568654D01*
X181994930Y-78583070D01*
X182009346Y-78598976D01*
X182022134Y-78616219D01*
X182033170Y-78634632D01*
X182042349Y-78654038D01*
X182049581Y-78674250D01*
X182054797Y-78695074D01*
X182057947Y-78716309D01*
X182059000Y-78737750D01*
X182059000Y-79250250D01*
X182057947Y-79271691D01*
X182054797Y-79292926D01*
X182049581Y-79313750D01*
X182042349Y-79333962D01*
X182033170Y-79353368D01*
X182022134Y-79371781D01*
X182009346Y-79389024D01*
X181994930Y-79404930D01*
X181979024Y-79419346D01*
X181961781Y-79432134D01*
X181943368Y-79443170D01*
X181923962Y-79452349D01*
X181903750Y-79459581D01*
X181882926Y-79464797D01*
X181861691Y-79467947D01*
X181840250Y-79469000D01*
X181402750Y-79469000D01*
X181381309Y-79467947D01*
X181360074Y-79464797D01*
X181339250Y-79459581D01*
X181319038Y-79452349D01*
X181299632Y-79443170D01*
X181281219Y-79432134D01*
X181263976Y-79419346D01*
X181248070Y-79404930D01*
X181233654Y-79389024D01*
X181220866Y-79371781D01*
X181209830Y-79353368D01*
X181200651Y-79333962D01*
X181193419Y-79313750D01*
X181188203Y-79292926D01*
X181185053Y-79271691D01*
X181184000Y-79250250D01*
X181184000Y-78737750D01*
X181185053Y-78716309D01*
X181188203Y-78695074D01*
X181193419Y-78674250D01*
X181200651Y-78654038D01*
X181209830Y-78634632D01*
X181220866Y-78616219D01*
X181233654Y-78598976D01*
X181248070Y-78583070D01*
X181263976Y-78568654D01*
X181281219Y-78555866D01*
X181299632Y-78544830D01*
X181319038Y-78535651D01*
X181339250Y-78528419D01*
X181360074Y-78523203D01*
X181381309Y-78520053D01*
X181402750Y-78519000D01*
X181840250Y-78519000D01*
X181861691Y-78520053D01*
X181861691Y-78520053D01*
G37*
D11*
X181621500Y-78994000D03*
G04 #@! TD*
D10*
G04 #@! TO.C,D8*
G36*
X181861691Y-75980053D02*
X181882926Y-75983203D01*
X181903750Y-75988419D01*
X181923962Y-75995651D01*
X181943368Y-76004830D01*
X181961781Y-76015866D01*
X181979024Y-76028654D01*
X181994930Y-76043070D01*
X182009346Y-76058976D01*
X182022134Y-76076219D01*
X182033170Y-76094632D01*
X182042349Y-76114038D01*
X182049581Y-76134250D01*
X182054797Y-76155074D01*
X182057947Y-76176309D01*
X182059000Y-76197750D01*
X182059000Y-76710250D01*
X182057947Y-76731691D01*
X182054797Y-76752926D01*
X182049581Y-76773750D01*
X182042349Y-76793962D01*
X182033170Y-76813368D01*
X182022134Y-76831781D01*
X182009346Y-76849024D01*
X181994930Y-76864930D01*
X181979024Y-76879346D01*
X181961781Y-76892134D01*
X181943368Y-76903170D01*
X181923962Y-76912349D01*
X181903750Y-76919581D01*
X181882926Y-76924797D01*
X181861691Y-76927947D01*
X181840250Y-76929000D01*
X181402750Y-76929000D01*
X181381309Y-76927947D01*
X181360074Y-76924797D01*
X181339250Y-76919581D01*
X181319038Y-76912349D01*
X181299632Y-76903170D01*
X181281219Y-76892134D01*
X181263976Y-76879346D01*
X181248070Y-76864930D01*
X181233654Y-76849024D01*
X181220866Y-76831781D01*
X181209830Y-76813368D01*
X181200651Y-76793962D01*
X181193419Y-76773750D01*
X181188203Y-76752926D01*
X181185053Y-76731691D01*
X181184000Y-76710250D01*
X181184000Y-76197750D01*
X181185053Y-76176309D01*
X181188203Y-76155074D01*
X181193419Y-76134250D01*
X181200651Y-76114038D01*
X181209830Y-76094632D01*
X181220866Y-76076219D01*
X181233654Y-76058976D01*
X181248070Y-76043070D01*
X181263976Y-76028654D01*
X181281219Y-76015866D01*
X181299632Y-76004830D01*
X181319038Y-75995651D01*
X181339250Y-75988419D01*
X181360074Y-75983203D01*
X181381309Y-75980053D01*
X181402750Y-75979000D01*
X181840250Y-75979000D01*
X181861691Y-75980053D01*
X181861691Y-75980053D01*
G37*
D11*
X181621500Y-76454000D03*
D10*
G36*
X183436691Y-75980053D02*
X183457926Y-75983203D01*
X183478750Y-75988419D01*
X183498962Y-75995651D01*
X183518368Y-76004830D01*
X183536781Y-76015866D01*
X183554024Y-76028654D01*
X183569930Y-76043070D01*
X183584346Y-76058976D01*
X183597134Y-76076219D01*
X183608170Y-76094632D01*
X183617349Y-76114038D01*
X183624581Y-76134250D01*
X183629797Y-76155074D01*
X183632947Y-76176309D01*
X183634000Y-76197750D01*
X183634000Y-76710250D01*
X183632947Y-76731691D01*
X183629797Y-76752926D01*
X183624581Y-76773750D01*
X183617349Y-76793962D01*
X183608170Y-76813368D01*
X183597134Y-76831781D01*
X183584346Y-76849024D01*
X183569930Y-76864930D01*
X183554024Y-76879346D01*
X183536781Y-76892134D01*
X183518368Y-76903170D01*
X183498962Y-76912349D01*
X183478750Y-76919581D01*
X183457926Y-76924797D01*
X183436691Y-76927947D01*
X183415250Y-76929000D01*
X182977750Y-76929000D01*
X182956309Y-76927947D01*
X182935074Y-76924797D01*
X182914250Y-76919581D01*
X182894038Y-76912349D01*
X182874632Y-76903170D01*
X182856219Y-76892134D01*
X182838976Y-76879346D01*
X182823070Y-76864930D01*
X182808654Y-76849024D01*
X182795866Y-76831781D01*
X182784830Y-76813368D01*
X182775651Y-76793962D01*
X182768419Y-76773750D01*
X182763203Y-76752926D01*
X182760053Y-76731691D01*
X182759000Y-76710250D01*
X182759000Y-76197750D01*
X182760053Y-76176309D01*
X182763203Y-76155074D01*
X182768419Y-76134250D01*
X182775651Y-76114038D01*
X182784830Y-76094632D01*
X182795866Y-76076219D01*
X182808654Y-76058976D01*
X182823070Y-76043070D01*
X182838976Y-76028654D01*
X182856219Y-76015866D01*
X182874632Y-76004830D01*
X182894038Y-75995651D01*
X182914250Y-75988419D01*
X182935074Y-75983203D01*
X182956309Y-75980053D01*
X182977750Y-75979000D01*
X183415250Y-75979000D01*
X183436691Y-75980053D01*
X183436691Y-75980053D01*
G37*
D11*
X183196500Y-76454000D03*
G04 #@! TD*
D10*
G04 #@! TO.C,D4*
G36*
X149435191Y-115638053D02*
X149456426Y-115641203D01*
X149477250Y-115646419D01*
X149497462Y-115653651D01*
X149516868Y-115662830D01*
X149535281Y-115673866D01*
X149552524Y-115686654D01*
X149568430Y-115701070D01*
X149582846Y-115716976D01*
X149595634Y-115734219D01*
X149606670Y-115752632D01*
X149615849Y-115772038D01*
X149623081Y-115792250D01*
X149628297Y-115813074D01*
X149631447Y-115834309D01*
X149632500Y-115855750D01*
X149632500Y-116368250D01*
X149631447Y-116389691D01*
X149628297Y-116410926D01*
X149623081Y-116431750D01*
X149615849Y-116451962D01*
X149606670Y-116471368D01*
X149595634Y-116489781D01*
X149582846Y-116507024D01*
X149568430Y-116522930D01*
X149552524Y-116537346D01*
X149535281Y-116550134D01*
X149516868Y-116561170D01*
X149497462Y-116570349D01*
X149477250Y-116577581D01*
X149456426Y-116582797D01*
X149435191Y-116585947D01*
X149413750Y-116587000D01*
X148976250Y-116587000D01*
X148954809Y-116585947D01*
X148933574Y-116582797D01*
X148912750Y-116577581D01*
X148892538Y-116570349D01*
X148873132Y-116561170D01*
X148854719Y-116550134D01*
X148837476Y-116537346D01*
X148821570Y-116522930D01*
X148807154Y-116507024D01*
X148794366Y-116489781D01*
X148783330Y-116471368D01*
X148774151Y-116451962D01*
X148766919Y-116431750D01*
X148761703Y-116410926D01*
X148758553Y-116389691D01*
X148757500Y-116368250D01*
X148757500Y-115855750D01*
X148758553Y-115834309D01*
X148761703Y-115813074D01*
X148766919Y-115792250D01*
X148774151Y-115772038D01*
X148783330Y-115752632D01*
X148794366Y-115734219D01*
X148807154Y-115716976D01*
X148821570Y-115701070D01*
X148837476Y-115686654D01*
X148854719Y-115673866D01*
X148873132Y-115662830D01*
X148892538Y-115653651D01*
X148912750Y-115646419D01*
X148933574Y-115641203D01*
X148954809Y-115638053D01*
X148976250Y-115637000D01*
X149413750Y-115637000D01*
X149435191Y-115638053D01*
X149435191Y-115638053D01*
G37*
D11*
X149195000Y-116112000D03*
D10*
G36*
X147860191Y-115638053D02*
X147881426Y-115641203D01*
X147902250Y-115646419D01*
X147922462Y-115653651D01*
X147941868Y-115662830D01*
X147960281Y-115673866D01*
X147977524Y-115686654D01*
X147993430Y-115701070D01*
X148007846Y-115716976D01*
X148020634Y-115734219D01*
X148031670Y-115752632D01*
X148040849Y-115772038D01*
X148048081Y-115792250D01*
X148053297Y-115813074D01*
X148056447Y-115834309D01*
X148057500Y-115855750D01*
X148057500Y-116368250D01*
X148056447Y-116389691D01*
X148053297Y-116410926D01*
X148048081Y-116431750D01*
X148040849Y-116451962D01*
X148031670Y-116471368D01*
X148020634Y-116489781D01*
X148007846Y-116507024D01*
X147993430Y-116522930D01*
X147977524Y-116537346D01*
X147960281Y-116550134D01*
X147941868Y-116561170D01*
X147922462Y-116570349D01*
X147902250Y-116577581D01*
X147881426Y-116582797D01*
X147860191Y-116585947D01*
X147838750Y-116587000D01*
X147401250Y-116587000D01*
X147379809Y-116585947D01*
X147358574Y-116582797D01*
X147337750Y-116577581D01*
X147317538Y-116570349D01*
X147298132Y-116561170D01*
X147279719Y-116550134D01*
X147262476Y-116537346D01*
X147246570Y-116522930D01*
X147232154Y-116507024D01*
X147219366Y-116489781D01*
X147208330Y-116471368D01*
X147199151Y-116451962D01*
X147191919Y-116431750D01*
X147186703Y-116410926D01*
X147183553Y-116389691D01*
X147182500Y-116368250D01*
X147182500Y-115855750D01*
X147183553Y-115834309D01*
X147186703Y-115813074D01*
X147191919Y-115792250D01*
X147199151Y-115772038D01*
X147208330Y-115752632D01*
X147219366Y-115734219D01*
X147232154Y-115716976D01*
X147246570Y-115701070D01*
X147262476Y-115686654D01*
X147279719Y-115673866D01*
X147298132Y-115662830D01*
X147317538Y-115653651D01*
X147337750Y-115646419D01*
X147358574Y-115641203D01*
X147379809Y-115638053D01*
X147401250Y-115637000D01*
X147838750Y-115637000D01*
X147860191Y-115638053D01*
X147860191Y-115638053D01*
G37*
D11*
X147620000Y-116112000D03*
G04 #@! TD*
D10*
G04 #@! TO.C,D3*
G36*
X162024191Y-115350053D02*
X162045426Y-115353203D01*
X162066250Y-115358419D01*
X162086462Y-115365651D01*
X162105868Y-115374830D01*
X162124281Y-115385866D01*
X162141524Y-115398654D01*
X162157430Y-115413070D01*
X162171846Y-115428976D01*
X162184634Y-115446219D01*
X162195670Y-115464632D01*
X162204849Y-115484038D01*
X162212081Y-115504250D01*
X162217297Y-115525074D01*
X162220447Y-115546309D01*
X162221500Y-115567750D01*
X162221500Y-116080250D01*
X162220447Y-116101691D01*
X162217297Y-116122926D01*
X162212081Y-116143750D01*
X162204849Y-116163962D01*
X162195670Y-116183368D01*
X162184634Y-116201781D01*
X162171846Y-116219024D01*
X162157430Y-116234930D01*
X162141524Y-116249346D01*
X162124281Y-116262134D01*
X162105868Y-116273170D01*
X162086462Y-116282349D01*
X162066250Y-116289581D01*
X162045426Y-116294797D01*
X162024191Y-116297947D01*
X162002750Y-116299000D01*
X161565250Y-116299000D01*
X161543809Y-116297947D01*
X161522574Y-116294797D01*
X161501750Y-116289581D01*
X161481538Y-116282349D01*
X161462132Y-116273170D01*
X161443719Y-116262134D01*
X161426476Y-116249346D01*
X161410570Y-116234930D01*
X161396154Y-116219024D01*
X161383366Y-116201781D01*
X161372330Y-116183368D01*
X161363151Y-116163962D01*
X161355919Y-116143750D01*
X161350703Y-116122926D01*
X161347553Y-116101691D01*
X161346500Y-116080250D01*
X161346500Y-115567750D01*
X161347553Y-115546309D01*
X161350703Y-115525074D01*
X161355919Y-115504250D01*
X161363151Y-115484038D01*
X161372330Y-115464632D01*
X161383366Y-115446219D01*
X161396154Y-115428976D01*
X161410570Y-115413070D01*
X161426476Y-115398654D01*
X161443719Y-115385866D01*
X161462132Y-115374830D01*
X161481538Y-115365651D01*
X161501750Y-115358419D01*
X161522574Y-115353203D01*
X161543809Y-115350053D01*
X161565250Y-115349000D01*
X162002750Y-115349000D01*
X162024191Y-115350053D01*
X162024191Y-115350053D01*
G37*
D11*
X161784000Y-115824000D03*
D10*
G36*
X163599191Y-115350053D02*
X163620426Y-115353203D01*
X163641250Y-115358419D01*
X163661462Y-115365651D01*
X163680868Y-115374830D01*
X163699281Y-115385866D01*
X163716524Y-115398654D01*
X163732430Y-115413070D01*
X163746846Y-115428976D01*
X163759634Y-115446219D01*
X163770670Y-115464632D01*
X163779849Y-115484038D01*
X163787081Y-115504250D01*
X163792297Y-115525074D01*
X163795447Y-115546309D01*
X163796500Y-115567750D01*
X163796500Y-116080250D01*
X163795447Y-116101691D01*
X163792297Y-116122926D01*
X163787081Y-116143750D01*
X163779849Y-116163962D01*
X163770670Y-116183368D01*
X163759634Y-116201781D01*
X163746846Y-116219024D01*
X163732430Y-116234930D01*
X163716524Y-116249346D01*
X163699281Y-116262134D01*
X163680868Y-116273170D01*
X163661462Y-116282349D01*
X163641250Y-116289581D01*
X163620426Y-116294797D01*
X163599191Y-116297947D01*
X163577750Y-116299000D01*
X163140250Y-116299000D01*
X163118809Y-116297947D01*
X163097574Y-116294797D01*
X163076750Y-116289581D01*
X163056538Y-116282349D01*
X163037132Y-116273170D01*
X163018719Y-116262134D01*
X163001476Y-116249346D01*
X162985570Y-116234930D01*
X162971154Y-116219024D01*
X162958366Y-116201781D01*
X162947330Y-116183368D01*
X162938151Y-116163962D01*
X162930919Y-116143750D01*
X162925703Y-116122926D01*
X162922553Y-116101691D01*
X162921500Y-116080250D01*
X162921500Y-115567750D01*
X162922553Y-115546309D01*
X162925703Y-115525074D01*
X162930919Y-115504250D01*
X162938151Y-115484038D01*
X162947330Y-115464632D01*
X162958366Y-115446219D01*
X162971154Y-115428976D01*
X162985570Y-115413070D01*
X163001476Y-115398654D01*
X163018719Y-115385866D01*
X163037132Y-115374830D01*
X163056538Y-115365651D01*
X163076750Y-115358419D01*
X163097574Y-115353203D01*
X163118809Y-115350053D01*
X163140250Y-115349000D01*
X163577750Y-115349000D01*
X163599191Y-115350053D01*
X163599191Y-115350053D01*
G37*
D11*
X163359000Y-115824000D03*
G04 #@! TD*
D10*
G04 #@! TO.C,D2*
G36*
X177569191Y-115350053D02*
X177590426Y-115353203D01*
X177611250Y-115358419D01*
X177631462Y-115365651D01*
X177650868Y-115374830D01*
X177669281Y-115385866D01*
X177686524Y-115398654D01*
X177702430Y-115413070D01*
X177716846Y-115428976D01*
X177729634Y-115446219D01*
X177740670Y-115464632D01*
X177749849Y-115484038D01*
X177757081Y-115504250D01*
X177762297Y-115525074D01*
X177765447Y-115546309D01*
X177766500Y-115567750D01*
X177766500Y-116080250D01*
X177765447Y-116101691D01*
X177762297Y-116122926D01*
X177757081Y-116143750D01*
X177749849Y-116163962D01*
X177740670Y-116183368D01*
X177729634Y-116201781D01*
X177716846Y-116219024D01*
X177702430Y-116234930D01*
X177686524Y-116249346D01*
X177669281Y-116262134D01*
X177650868Y-116273170D01*
X177631462Y-116282349D01*
X177611250Y-116289581D01*
X177590426Y-116294797D01*
X177569191Y-116297947D01*
X177547750Y-116299000D01*
X177110250Y-116299000D01*
X177088809Y-116297947D01*
X177067574Y-116294797D01*
X177046750Y-116289581D01*
X177026538Y-116282349D01*
X177007132Y-116273170D01*
X176988719Y-116262134D01*
X176971476Y-116249346D01*
X176955570Y-116234930D01*
X176941154Y-116219024D01*
X176928366Y-116201781D01*
X176917330Y-116183368D01*
X176908151Y-116163962D01*
X176900919Y-116143750D01*
X176895703Y-116122926D01*
X176892553Y-116101691D01*
X176891500Y-116080250D01*
X176891500Y-115567750D01*
X176892553Y-115546309D01*
X176895703Y-115525074D01*
X176900919Y-115504250D01*
X176908151Y-115484038D01*
X176917330Y-115464632D01*
X176928366Y-115446219D01*
X176941154Y-115428976D01*
X176955570Y-115413070D01*
X176971476Y-115398654D01*
X176988719Y-115385866D01*
X177007132Y-115374830D01*
X177026538Y-115365651D01*
X177046750Y-115358419D01*
X177067574Y-115353203D01*
X177088809Y-115350053D01*
X177110250Y-115349000D01*
X177547750Y-115349000D01*
X177569191Y-115350053D01*
X177569191Y-115350053D01*
G37*
D11*
X177329000Y-115824000D03*
D10*
G36*
X175994191Y-115350053D02*
X176015426Y-115353203D01*
X176036250Y-115358419D01*
X176056462Y-115365651D01*
X176075868Y-115374830D01*
X176094281Y-115385866D01*
X176111524Y-115398654D01*
X176127430Y-115413070D01*
X176141846Y-115428976D01*
X176154634Y-115446219D01*
X176165670Y-115464632D01*
X176174849Y-115484038D01*
X176182081Y-115504250D01*
X176187297Y-115525074D01*
X176190447Y-115546309D01*
X176191500Y-115567750D01*
X176191500Y-116080250D01*
X176190447Y-116101691D01*
X176187297Y-116122926D01*
X176182081Y-116143750D01*
X176174849Y-116163962D01*
X176165670Y-116183368D01*
X176154634Y-116201781D01*
X176141846Y-116219024D01*
X176127430Y-116234930D01*
X176111524Y-116249346D01*
X176094281Y-116262134D01*
X176075868Y-116273170D01*
X176056462Y-116282349D01*
X176036250Y-116289581D01*
X176015426Y-116294797D01*
X175994191Y-116297947D01*
X175972750Y-116299000D01*
X175535250Y-116299000D01*
X175513809Y-116297947D01*
X175492574Y-116294797D01*
X175471750Y-116289581D01*
X175451538Y-116282349D01*
X175432132Y-116273170D01*
X175413719Y-116262134D01*
X175396476Y-116249346D01*
X175380570Y-116234930D01*
X175366154Y-116219024D01*
X175353366Y-116201781D01*
X175342330Y-116183368D01*
X175333151Y-116163962D01*
X175325919Y-116143750D01*
X175320703Y-116122926D01*
X175317553Y-116101691D01*
X175316500Y-116080250D01*
X175316500Y-115567750D01*
X175317553Y-115546309D01*
X175320703Y-115525074D01*
X175325919Y-115504250D01*
X175333151Y-115484038D01*
X175342330Y-115464632D01*
X175353366Y-115446219D01*
X175366154Y-115428976D01*
X175380570Y-115413070D01*
X175396476Y-115398654D01*
X175413719Y-115385866D01*
X175432132Y-115374830D01*
X175451538Y-115365651D01*
X175471750Y-115358419D01*
X175492574Y-115353203D01*
X175513809Y-115350053D01*
X175535250Y-115349000D01*
X175972750Y-115349000D01*
X175994191Y-115350053D01*
X175994191Y-115350053D01*
G37*
D11*
X175754000Y-115824000D03*
G04 #@! TD*
D10*
G04 #@! TO.C,D5*
G36*
X159547191Y-97074053D02*
X159568426Y-97077203D01*
X159589250Y-97082419D01*
X159609462Y-97089651D01*
X159628868Y-97098830D01*
X159647281Y-97109866D01*
X159664524Y-97122654D01*
X159680430Y-97137070D01*
X159694846Y-97152976D01*
X159707634Y-97170219D01*
X159718670Y-97188632D01*
X159727849Y-97208038D01*
X159735081Y-97228250D01*
X159740297Y-97249074D01*
X159743447Y-97270309D01*
X159744500Y-97291750D01*
X159744500Y-97729250D01*
X159743447Y-97750691D01*
X159740297Y-97771926D01*
X159735081Y-97792750D01*
X159727849Y-97812962D01*
X159718670Y-97832368D01*
X159707634Y-97850781D01*
X159694846Y-97868024D01*
X159680430Y-97883930D01*
X159664524Y-97898346D01*
X159647281Y-97911134D01*
X159628868Y-97922170D01*
X159609462Y-97931349D01*
X159589250Y-97938581D01*
X159568426Y-97943797D01*
X159547191Y-97946947D01*
X159525750Y-97948000D01*
X159013250Y-97948000D01*
X158991809Y-97946947D01*
X158970574Y-97943797D01*
X158949750Y-97938581D01*
X158929538Y-97931349D01*
X158910132Y-97922170D01*
X158891719Y-97911134D01*
X158874476Y-97898346D01*
X158858570Y-97883930D01*
X158844154Y-97868024D01*
X158831366Y-97850781D01*
X158820330Y-97832368D01*
X158811151Y-97812962D01*
X158803919Y-97792750D01*
X158798703Y-97771926D01*
X158795553Y-97750691D01*
X158794500Y-97729250D01*
X158794500Y-97291750D01*
X158795553Y-97270309D01*
X158798703Y-97249074D01*
X158803919Y-97228250D01*
X158811151Y-97208038D01*
X158820330Y-97188632D01*
X158831366Y-97170219D01*
X158844154Y-97152976D01*
X158858570Y-97137070D01*
X158874476Y-97122654D01*
X158891719Y-97109866D01*
X158910132Y-97098830D01*
X158929538Y-97089651D01*
X158949750Y-97082419D01*
X158970574Y-97077203D01*
X158991809Y-97074053D01*
X159013250Y-97073000D01*
X159525750Y-97073000D01*
X159547191Y-97074053D01*
X159547191Y-97074053D01*
G37*
D11*
X159269500Y-97510500D03*
D10*
G36*
X159547191Y-98649053D02*
X159568426Y-98652203D01*
X159589250Y-98657419D01*
X159609462Y-98664651D01*
X159628868Y-98673830D01*
X159647281Y-98684866D01*
X159664524Y-98697654D01*
X159680430Y-98712070D01*
X159694846Y-98727976D01*
X159707634Y-98745219D01*
X159718670Y-98763632D01*
X159727849Y-98783038D01*
X159735081Y-98803250D01*
X159740297Y-98824074D01*
X159743447Y-98845309D01*
X159744500Y-98866750D01*
X159744500Y-99304250D01*
X159743447Y-99325691D01*
X159740297Y-99346926D01*
X159735081Y-99367750D01*
X159727849Y-99387962D01*
X159718670Y-99407368D01*
X159707634Y-99425781D01*
X159694846Y-99443024D01*
X159680430Y-99458930D01*
X159664524Y-99473346D01*
X159647281Y-99486134D01*
X159628868Y-99497170D01*
X159609462Y-99506349D01*
X159589250Y-99513581D01*
X159568426Y-99518797D01*
X159547191Y-99521947D01*
X159525750Y-99523000D01*
X159013250Y-99523000D01*
X158991809Y-99521947D01*
X158970574Y-99518797D01*
X158949750Y-99513581D01*
X158929538Y-99506349D01*
X158910132Y-99497170D01*
X158891719Y-99486134D01*
X158874476Y-99473346D01*
X158858570Y-99458930D01*
X158844154Y-99443024D01*
X158831366Y-99425781D01*
X158820330Y-99407368D01*
X158811151Y-99387962D01*
X158803919Y-99367750D01*
X158798703Y-99346926D01*
X158795553Y-99325691D01*
X158794500Y-99304250D01*
X158794500Y-98866750D01*
X158795553Y-98845309D01*
X158798703Y-98824074D01*
X158803919Y-98803250D01*
X158811151Y-98783038D01*
X158820330Y-98763632D01*
X158831366Y-98745219D01*
X158844154Y-98727976D01*
X158858570Y-98712070D01*
X158874476Y-98697654D01*
X158891719Y-98684866D01*
X158910132Y-98673830D01*
X158929538Y-98664651D01*
X158949750Y-98657419D01*
X158970574Y-98652203D01*
X158991809Y-98649053D01*
X159013250Y-98648000D01*
X159525750Y-98648000D01*
X159547191Y-98649053D01*
X159547191Y-98649053D01*
G37*
D11*
X159269500Y-99085500D03*
G04 #@! TD*
D10*
G04 #@! TO.C,D1*
G36*
X191539191Y-115350053D02*
X191560426Y-115353203D01*
X191581250Y-115358419D01*
X191601462Y-115365651D01*
X191620868Y-115374830D01*
X191639281Y-115385866D01*
X191656524Y-115398654D01*
X191672430Y-115413070D01*
X191686846Y-115428976D01*
X191699634Y-115446219D01*
X191710670Y-115464632D01*
X191719849Y-115484038D01*
X191727081Y-115504250D01*
X191732297Y-115525074D01*
X191735447Y-115546309D01*
X191736500Y-115567750D01*
X191736500Y-116080250D01*
X191735447Y-116101691D01*
X191732297Y-116122926D01*
X191727081Y-116143750D01*
X191719849Y-116163962D01*
X191710670Y-116183368D01*
X191699634Y-116201781D01*
X191686846Y-116219024D01*
X191672430Y-116234930D01*
X191656524Y-116249346D01*
X191639281Y-116262134D01*
X191620868Y-116273170D01*
X191601462Y-116282349D01*
X191581250Y-116289581D01*
X191560426Y-116294797D01*
X191539191Y-116297947D01*
X191517750Y-116299000D01*
X191080250Y-116299000D01*
X191058809Y-116297947D01*
X191037574Y-116294797D01*
X191016750Y-116289581D01*
X190996538Y-116282349D01*
X190977132Y-116273170D01*
X190958719Y-116262134D01*
X190941476Y-116249346D01*
X190925570Y-116234930D01*
X190911154Y-116219024D01*
X190898366Y-116201781D01*
X190887330Y-116183368D01*
X190878151Y-116163962D01*
X190870919Y-116143750D01*
X190865703Y-116122926D01*
X190862553Y-116101691D01*
X190861500Y-116080250D01*
X190861500Y-115567750D01*
X190862553Y-115546309D01*
X190865703Y-115525074D01*
X190870919Y-115504250D01*
X190878151Y-115484038D01*
X190887330Y-115464632D01*
X190898366Y-115446219D01*
X190911154Y-115428976D01*
X190925570Y-115413070D01*
X190941476Y-115398654D01*
X190958719Y-115385866D01*
X190977132Y-115374830D01*
X190996538Y-115365651D01*
X191016750Y-115358419D01*
X191037574Y-115353203D01*
X191058809Y-115350053D01*
X191080250Y-115349000D01*
X191517750Y-115349000D01*
X191539191Y-115350053D01*
X191539191Y-115350053D01*
G37*
D11*
X191299000Y-115824000D03*
D10*
G36*
X189964191Y-115350053D02*
X189985426Y-115353203D01*
X190006250Y-115358419D01*
X190026462Y-115365651D01*
X190045868Y-115374830D01*
X190064281Y-115385866D01*
X190081524Y-115398654D01*
X190097430Y-115413070D01*
X190111846Y-115428976D01*
X190124634Y-115446219D01*
X190135670Y-115464632D01*
X190144849Y-115484038D01*
X190152081Y-115504250D01*
X190157297Y-115525074D01*
X190160447Y-115546309D01*
X190161500Y-115567750D01*
X190161500Y-116080250D01*
X190160447Y-116101691D01*
X190157297Y-116122926D01*
X190152081Y-116143750D01*
X190144849Y-116163962D01*
X190135670Y-116183368D01*
X190124634Y-116201781D01*
X190111846Y-116219024D01*
X190097430Y-116234930D01*
X190081524Y-116249346D01*
X190064281Y-116262134D01*
X190045868Y-116273170D01*
X190026462Y-116282349D01*
X190006250Y-116289581D01*
X189985426Y-116294797D01*
X189964191Y-116297947D01*
X189942750Y-116299000D01*
X189505250Y-116299000D01*
X189483809Y-116297947D01*
X189462574Y-116294797D01*
X189441750Y-116289581D01*
X189421538Y-116282349D01*
X189402132Y-116273170D01*
X189383719Y-116262134D01*
X189366476Y-116249346D01*
X189350570Y-116234930D01*
X189336154Y-116219024D01*
X189323366Y-116201781D01*
X189312330Y-116183368D01*
X189303151Y-116163962D01*
X189295919Y-116143750D01*
X189290703Y-116122926D01*
X189287553Y-116101691D01*
X189286500Y-116080250D01*
X189286500Y-115567750D01*
X189287553Y-115546309D01*
X189290703Y-115525074D01*
X189295919Y-115504250D01*
X189303151Y-115484038D01*
X189312330Y-115464632D01*
X189323366Y-115446219D01*
X189336154Y-115428976D01*
X189350570Y-115413070D01*
X189366476Y-115398654D01*
X189383719Y-115385866D01*
X189402132Y-115374830D01*
X189421538Y-115365651D01*
X189441750Y-115358419D01*
X189462574Y-115353203D01*
X189483809Y-115350053D01*
X189505250Y-115349000D01*
X189942750Y-115349000D01*
X189964191Y-115350053D01*
X189964191Y-115350053D01*
G37*
D11*
X189724000Y-115824000D03*
G04 #@! TD*
D12*
G04 #@! TO.C,U2*
X199660000Y-97464000D03*
X199660000Y-96194000D03*
X199660000Y-94924000D03*
X199660000Y-93654000D03*
X199660000Y-92384000D03*
X199660000Y-91114000D03*
X199660000Y-89844000D03*
X199660000Y-88574000D03*
X199660000Y-87304000D03*
X190935000Y-97464000D03*
X190935000Y-96194000D03*
X190935000Y-94924000D03*
X190935000Y-93654000D03*
X190935000Y-92384000D03*
X190935000Y-91114000D03*
X190935000Y-89844000D03*
X190935000Y-88574000D03*
X190935000Y-87304000D03*
G04 #@! TD*
D10*
G04 #@! TO.C,C15*
G36*
X210477691Y-128376053D02*
X210498926Y-128379203D01*
X210519750Y-128384419D01*
X210539962Y-128391651D01*
X210559368Y-128400830D01*
X210577781Y-128411866D01*
X210595024Y-128424654D01*
X210610930Y-128439070D01*
X210625346Y-128454976D01*
X210638134Y-128472219D01*
X210649170Y-128490632D01*
X210658349Y-128510038D01*
X210665581Y-128530250D01*
X210670797Y-128551074D01*
X210673947Y-128572309D01*
X210675000Y-128593750D01*
X210675000Y-129031250D01*
X210673947Y-129052691D01*
X210670797Y-129073926D01*
X210665581Y-129094750D01*
X210658349Y-129114962D01*
X210649170Y-129134368D01*
X210638134Y-129152781D01*
X210625346Y-129170024D01*
X210610930Y-129185930D01*
X210595024Y-129200346D01*
X210577781Y-129213134D01*
X210559368Y-129224170D01*
X210539962Y-129233349D01*
X210519750Y-129240581D01*
X210498926Y-129245797D01*
X210477691Y-129248947D01*
X210456250Y-129250000D01*
X209943750Y-129250000D01*
X209922309Y-129248947D01*
X209901074Y-129245797D01*
X209880250Y-129240581D01*
X209860038Y-129233349D01*
X209840632Y-129224170D01*
X209822219Y-129213134D01*
X209804976Y-129200346D01*
X209789070Y-129185930D01*
X209774654Y-129170024D01*
X209761866Y-129152781D01*
X209750830Y-129134368D01*
X209741651Y-129114962D01*
X209734419Y-129094750D01*
X209729203Y-129073926D01*
X209726053Y-129052691D01*
X209725000Y-129031250D01*
X209725000Y-128593750D01*
X209726053Y-128572309D01*
X209729203Y-128551074D01*
X209734419Y-128530250D01*
X209741651Y-128510038D01*
X209750830Y-128490632D01*
X209761866Y-128472219D01*
X209774654Y-128454976D01*
X209789070Y-128439070D01*
X209804976Y-128424654D01*
X209822219Y-128411866D01*
X209840632Y-128400830D01*
X209860038Y-128391651D01*
X209880250Y-128384419D01*
X209901074Y-128379203D01*
X209922309Y-128376053D01*
X209943750Y-128375000D01*
X210456250Y-128375000D01*
X210477691Y-128376053D01*
X210477691Y-128376053D01*
G37*
D11*
X210200000Y-128812500D03*
D10*
G36*
X210477691Y-129951053D02*
X210498926Y-129954203D01*
X210519750Y-129959419D01*
X210539962Y-129966651D01*
X210559368Y-129975830D01*
X210577781Y-129986866D01*
X210595024Y-129999654D01*
X210610930Y-130014070D01*
X210625346Y-130029976D01*
X210638134Y-130047219D01*
X210649170Y-130065632D01*
X210658349Y-130085038D01*
X210665581Y-130105250D01*
X210670797Y-130126074D01*
X210673947Y-130147309D01*
X210675000Y-130168750D01*
X210675000Y-130606250D01*
X210673947Y-130627691D01*
X210670797Y-130648926D01*
X210665581Y-130669750D01*
X210658349Y-130689962D01*
X210649170Y-130709368D01*
X210638134Y-130727781D01*
X210625346Y-130745024D01*
X210610930Y-130760930D01*
X210595024Y-130775346D01*
X210577781Y-130788134D01*
X210559368Y-130799170D01*
X210539962Y-130808349D01*
X210519750Y-130815581D01*
X210498926Y-130820797D01*
X210477691Y-130823947D01*
X210456250Y-130825000D01*
X209943750Y-130825000D01*
X209922309Y-130823947D01*
X209901074Y-130820797D01*
X209880250Y-130815581D01*
X209860038Y-130808349D01*
X209840632Y-130799170D01*
X209822219Y-130788134D01*
X209804976Y-130775346D01*
X209789070Y-130760930D01*
X209774654Y-130745024D01*
X209761866Y-130727781D01*
X209750830Y-130709368D01*
X209741651Y-130689962D01*
X209734419Y-130669750D01*
X209729203Y-130648926D01*
X209726053Y-130627691D01*
X209725000Y-130606250D01*
X209725000Y-130168750D01*
X209726053Y-130147309D01*
X209729203Y-130126074D01*
X209734419Y-130105250D01*
X209741651Y-130085038D01*
X209750830Y-130065632D01*
X209761866Y-130047219D01*
X209774654Y-130029976D01*
X209789070Y-130014070D01*
X209804976Y-129999654D01*
X209822219Y-129986866D01*
X209840632Y-129975830D01*
X209860038Y-129966651D01*
X209880250Y-129959419D01*
X209901074Y-129954203D01*
X209922309Y-129951053D01*
X209943750Y-129950000D01*
X210456250Y-129950000D01*
X210477691Y-129951053D01*
X210477691Y-129951053D01*
G37*
D11*
X210200000Y-130387500D03*
G04 #@! TD*
D13*
G04 #@! TO.C,IC1*
X215985000Y-133275000D03*
X214715000Y-133275000D03*
X213445000Y-133275000D03*
X212175000Y-133275000D03*
X210905000Y-133275000D03*
X209635000Y-133275000D03*
X208365000Y-133275000D03*
X207095000Y-133275000D03*
X205825000Y-133275000D03*
X204555000Y-133275000D03*
X203285000Y-133275000D03*
X202015000Y-133275000D03*
X202015000Y-142725000D03*
X203285000Y-142725000D03*
X204555000Y-142725000D03*
X205825000Y-142725000D03*
X207095000Y-142725000D03*
X208365000Y-142725000D03*
X209635000Y-142725000D03*
X210905000Y-142725000D03*
X212175000Y-142725000D03*
X213445000Y-142725000D03*
X214715000Y-142725000D03*
X215985000Y-142725000D03*
G04 #@! TD*
D10*
G04 #@! TO.C,C14*
G36*
X202881191Y-105952053D02*
X202902426Y-105955203D01*
X202923250Y-105960419D01*
X202943462Y-105967651D01*
X202962868Y-105976830D01*
X202981281Y-105987866D01*
X202998524Y-106000654D01*
X203014430Y-106015070D01*
X203028846Y-106030976D01*
X203041634Y-106048219D01*
X203052670Y-106066632D01*
X203061849Y-106086038D01*
X203069081Y-106106250D01*
X203074297Y-106127074D01*
X203077447Y-106148309D01*
X203078500Y-106169750D01*
X203078500Y-106682250D01*
X203077447Y-106703691D01*
X203074297Y-106724926D01*
X203069081Y-106745750D01*
X203061849Y-106765962D01*
X203052670Y-106785368D01*
X203041634Y-106803781D01*
X203028846Y-106821024D01*
X203014430Y-106836930D01*
X202998524Y-106851346D01*
X202981281Y-106864134D01*
X202962868Y-106875170D01*
X202943462Y-106884349D01*
X202923250Y-106891581D01*
X202902426Y-106896797D01*
X202881191Y-106899947D01*
X202859750Y-106901000D01*
X202422250Y-106901000D01*
X202400809Y-106899947D01*
X202379574Y-106896797D01*
X202358750Y-106891581D01*
X202338538Y-106884349D01*
X202319132Y-106875170D01*
X202300719Y-106864134D01*
X202283476Y-106851346D01*
X202267570Y-106836930D01*
X202253154Y-106821024D01*
X202240366Y-106803781D01*
X202229330Y-106785368D01*
X202220151Y-106765962D01*
X202212919Y-106745750D01*
X202207703Y-106724926D01*
X202204553Y-106703691D01*
X202203500Y-106682250D01*
X202203500Y-106169750D01*
X202204553Y-106148309D01*
X202207703Y-106127074D01*
X202212919Y-106106250D01*
X202220151Y-106086038D01*
X202229330Y-106066632D01*
X202240366Y-106048219D01*
X202253154Y-106030976D01*
X202267570Y-106015070D01*
X202283476Y-106000654D01*
X202300719Y-105987866D01*
X202319132Y-105976830D01*
X202338538Y-105967651D01*
X202358750Y-105960419D01*
X202379574Y-105955203D01*
X202400809Y-105952053D01*
X202422250Y-105951000D01*
X202859750Y-105951000D01*
X202881191Y-105952053D01*
X202881191Y-105952053D01*
G37*
D11*
X202641000Y-106426000D03*
D10*
G36*
X204456191Y-105952053D02*
X204477426Y-105955203D01*
X204498250Y-105960419D01*
X204518462Y-105967651D01*
X204537868Y-105976830D01*
X204556281Y-105987866D01*
X204573524Y-106000654D01*
X204589430Y-106015070D01*
X204603846Y-106030976D01*
X204616634Y-106048219D01*
X204627670Y-106066632D01*
X204636849Y-106086038D01*
X204644081Y-106106250D01*
X204649297Y-106127074D01*
X204652447Y-106148309D01*
X204653500Y-106169750D01*
X204653500Y-106682250D01*
X204652447Y-106703691D01*
X204649297Y-106724926D01*
X204644081Y-106745750D01*
X204636849Y-106765962D01*
X204627670Y-106785368D01*
X204616634Y-106803781D01*
X204603846Y-106821024D01*
X204589430Y-106836930D01*
X204573524Y-106851346D01*
X204556281Y-106864134D01*
X204537868Y-106875170D01*
X204518462Y-106884349D01*
X204498250Y-106891581D01*
X204477426Y-106896797D01*
X204456191Y-106899947D01*
X204434750Y-106901000D01*
X203997250Y-106901000D01*
X203975809Y-106899947D01*
X203954574Y-106896797D01*
X203933750Y-106891581D01*
X203913538Y-106884349D01*
X203894132Y-106875170D01*
X203875719Y-106864134D01*
X203858476Y-106851346D01*
X203842570Y-106836930D01*
X203828154Y-106821024D01*
X203815366Y-106803781D01*
X203804330Y-106785368D01*
X203795151Y-106765962D01*
X203787919Y-106745750D01*
X203782703Y-106724926D01*
X203779553Y-106703691D01*
X203778500Y-106682250D01*
X203778500Y-106169750D01*
X203779553Y-106148309D01*
X203782703Y-106127074D01*
X203787919Y-106106250D01*
X203795151Y-106086038D01*
X203804330Y-106066632D01*
X203815366Y-106048219D01*
X203828154Y-106030976D01*
X203842570Y-106015070D01*
X203858476Y-106000654D01*
X203875719Y-105987866D01*
X203894132Y-105976830D01*
X203913538Y-105967651D01*
X203933750Y-105960419D01*
X203954574Y-105955203D01*
X203975809Y-105952053D01*
X203997250Y-105951000D01*
X204434750Y-105951000D01*
X204456191Y-105952053D01*
X204456191Y-105952053D01*
G37*
D11*
X204216000Y-106426000D03*
G04 #@! TD*
D10*
G04 #@! TO.C,C13*
G36*
X204456191Y-103920053D02*
X204477426Y-103923203D01*
X204498250Y-103928419D01*
X204518462Y-103935651D01*
X204537868Y-103944830D01*
X204556281Y-103955866D01*
X204573524Y-103968654D01*
X204589430Y-103983070D01*
X204603846Y-103998976D01*
X204616634Y-104016219D01*
X204627670Y-104034632D01*
X204636849Y-104054038D01*
X204644081Y-104074250D01*
X204649297Y-104095074D01*
X204652447Y-104116309D01*
X204653500Y-104137750D01*
X204653500Y-104650250D01*
X204652447Y-104671691D01*
X204649297Y-104692926D01*
X204644081Y-104713750D01*
X204636849Y-104733962D01*
X204627670Y-104753368D01*
X204616634Y-104771781D01*
X204603846Y-104789024D01*
X204589430Y-104804930D01*
X204573524Y-104819346D01*
X204556281Y-104832134D01*
X204537868Y-104843170D01*
X204518462Y-104852349D01*
X204498250Y-104859581D01*
X204477426Y-104864797D01*
X204456191Y-104867947D01*
X204434750Y-104869000D01*
X203997250Y-104869000D01*
X203975809Y-104867947D01*
X203954574Y-104864797D01*
X203933750Y-104859581D01*
X203913538Y-104852349D01*
X203894132Y-104843170D01*
X203875719Y-104832134D01*
X203858476Y-104819346D01*
X203842570Y-104804930D01*
X203828154Y-104789024D01*
X203815366Y-104771781D01*
X203804330Y-104753368D01*
X203795151Y-104733962D01*
X203787919Y-104713750D01*
X203782703Y-104692926D01*
X203779553Y-104671691D01*
X203778500Y-104650250D01*
X203778500Y-104137750D01*
X203779553Y-104116309D01*
X203782703Y-104095074D01*
X203787919Y-104074250D01*
X203795151Y-104054038D01*
X203804330Y-104034632D01*
X203815366Y-104016219D01*
X203828154Y-103998976D01*
X203842570Y-103983070D01*
X203858476Y-103968654D01*
X203875719Y-103955866D01*
X203894132Y-103944830D01*
X203913538Y-103935651D01*
X203933750Y-103928419D01*
X203954574Y-103923203D01*
X203975809Y-103920053D01*
X203997250Y-103919000D01*
X204434750Y-103919000D01*
X204456191Y-103920053D01*
X204456191Y-103920053D01*
G37*
D11*
X204216000Y-104394000D03*
D10*
G36*
X202881191Y-103920053D02*
X202902426Y-103923203D01*
X202923250Y-103928419D01*
X202943462Y-103935651D01*
X202962868Y-103944830D01*
X202981281Y-103955866D01*
X202998524Y-103968654D01*
X203014430Y-103983070D01*
X203028846Y-103998976D01*
X203041634Y-104016219D01*
X203052670Y-104034632D01*
X203061849Y-104054038D01*
X203069081Y-104074250D01*
X203074297Y-104095074D01*
X203077447Y-104116309D01*
X203078500Y-104137750D01*
X203078500Y-104650250D01*
X203077447Y-104671691D01*
X203074297Y-104692926D01*
X203069081Y-104713750D01*
X203061849Y-104733962D01*
X203052670Y-104753368D01*
X203041634Y-104771781D01*
X203028846Y-104789024D01*
X203014430Y-104804930D01*
X202998524Y-104819346D01*
X202981281Y-104832134D01*
X202962868Y-104843170D01*
X202943462Y-104852349D01*
X202923250Y-104859581D01*
X202902426Y-104864797D01*
X202881191Y-104867947D01*
X202859750Y-104869000D01*
X202422250Y-104869000D01*
X202400809Y-104867947D01*
X202379574Y-104864797D01*
X202358750Y-104859581D01*
X202338538Y-104852349D01*
X202319132Y-104843170D01*
X202300719Y-104832134D01*
X202283476Y-104819346D01*
X202267570Y-104804930D01*
X202253154Y-104789024D01*
X202240366Y-104771781D01*
X202229330Y-104753368D01*
X202220151Y-104733962D01*
X202212919Y-104713750D01*
X202207703Y-104692926D01*
X202204553Y-104671691D01*
X202203500Y-104650250D01*
X202203500Y-104137750D01*
X202204553Y-104116309D01*
X202207703Y-104095074D01*
X202212919Y-104074250D01*
X202220151Y-104054038D01*
X202229330Y-104034632D01*
X202240366Y-104016219D01*
X202253154Y-103998976D01*
X202267570Y-103983070D01*
X202283476Y-103968654D01*
X202300719Y-103955866D01*
X202319132Y-103944830D01*
X202338538Y-103935651D01*
X202358750Y-103928419D01*
X202379574Y-103923203D01*
X202400809Y-103920053D01*
X202422250Y-103919000D01*
X202859750Y-103919000D01*
X202881191Y-103920053D01*
X202881191Y-103920053D01*
G37*
D11*
X202641000Y-104394000D03*
G04 #@! TD*
D14*
G04 #@! TO.C,U5*
X211836000Y-109982000D03*
X210566000Y-109982000D03*
X209296000Y-109982000D03*
X208026000Y-109982000D03*
X206756000Y-109982000D03*
X205486000Y-109982000D03*
X204216000Y-109982000D03*
X204216000Y-115382000D03*
X205486000Y-115382000D03*
X206756000Y-115382000D03*
X208026000Y-115382000D03*
X209296000Y-115382000D03*
X210566000Y-115382000D03*
X211836000Y-115382000D03*
G04 #@! TD*
D10*
G04 #@! TO.C,R1*
G36*
X208898642Y-103695174D02*
X208922303Y-103698684D01*
X208945507Y-103704496D01*
X208968029Y-103712554D01*
X208989653Y-103722782D01*
X209010170Y-103735079D01*
X209029383Y-103749329D01*
X209047107Y-103765393D01*
X209063171Y-103783117D01*
X209077421Y-103802330D01*
X209089718Y-103822847D01*
X209099946Y-103844471D01*
X209108004Y-103866993D01*
X209113816Y-103890197D01*
X209117326Y-103913858D01*
X209118500Y-103937750D01*
X209118500Y-104850250D01*
X209117326Y-104874142D01*
X209113816Y-104897803D01*
X209108004Y-104921007D01*
X209099946Y-104943529D01*
X209089718Y-104965153D01*
X209077421Y-104985670D01*
X209063171Y-105004883D01*
X209047107Y-105022607D01*
X209029383Y-105038671D01*
X209010170Y-105052921D01*
X208989653Y-105065218D01*
X208968029Y-105075446D01*
X208945507Y-105083504D01*
X208922303Y-105089316D01*
X208898642Y-105092826D01*
X208874750Y-105094000D01*
X208387250Y-105094000D01*
X208363358Y-105092826D01*
X208339697Y-105089316D01*
X208316493Y-105083504D01*
X208293971Y-105075446D01*
X208272347Y-105065218D01*
X208251830Y-105052921D01*
X208232617Y-105038671D01*
X208214893Y-105022607D01*
X208198829Y-105004883D01*
X208184579Y-104985670D01*
X208172282Y-104965153D01*
X208162054Y-104943529D01*
X208153996Y-104921007D01*
X208148184Y-104897803D01*
X208144674Y-104874142D01*
X208143500Y-104850250D01*
X208143500Y-103937750D01*
X208144674Y-103913858D01*
X208148184Y-103890197D01*
X208153996Y-103866993D01*
X208162054Y-103844471D01*
X208172282Y-103822847D01*
X208184579Y-103802330D01*
X208198829Y-103783117D01*
X208214893Y-103765393D01*
X208232617Y-103749329D01*
X208251830Y-103735079D01*
X208272347Y-103722782D01*
X208293971Y-103712554D01*
X208316493Y-103704496D01*
X208339697Y-103698684D01*
X208363358Y-103695174D01*
X208387250Y-103694000D01*
X208874750Y-103694000D01*
X208898642Y-103695174D01*
X208898642Y-103695174D01*
G37*
D15*
X208631000Y-104394000D03*
D10*
G36*
X207023642Y-103695174D02*
X207047303Y-103698684D01*
X207070507Y-103704496D01*
X207093029Y-103712554D01*
X207114653Y-103722782D01*
X207135170Y-103735079D01*
X207154383Y-103749329D01*
X207172107Y-103765393D01*
X207188171Y-103783117D01*
X207202421Y-103802330D01*
X207214718Y-103822847D01*
X207224946Y-103844471D01*
X207233004Y-103866993D01*
X207238816Y-103890197D01*
X207242326Y-103913858D01*
X207243500Y-103937750D01*
X207243500Y-104850250D01*
X207242326Y-104874142D01*
X207238816Y-104897803D01*
X207233004Y-104921007D01*
X207224946Y-104943529D01*
X207214718Y-104965153D01*
X207202421Y-104985670D01*
X207188171Y-105004883D01*
X207172107Y-105022607D01*
X207154383Y-105038671D01*
X207135170Y-105052921D01*
X207114653Y-105065218D01*
X207093029Y-105075446D01*
X207070507Y-105083504D01*
X207047303Y-105089316D01*
X207023642Y-105092826D01*
X206999750Y-105094000D01*
X206512250Y-105094000D01*
X206488358Y-105092826D01*
X206464697Y-105089316D01*
X206441493Y-105083504D01*
X206418971Y-105075446D01*
X206397347Y-105065218D01*
X206376830Y-105052921D01*
X206357617Y-105038671D01*
X206339893Y-105022607D01*
X206323829Y-105004883D01*
X206309579Y-104985670D01*
X206297282Y-104965153D01*
X206287054Y-104943529D01*
X206278996Y-104921007D01*
X206273184Y-104897803D01*
X206269674Y-104874142D01*
X206268500Y-104850250D01*
X206268500Y-103937750D01*
X206269674Y-103913858D01*
X206273184Y-103890197D01*
X206278996Y-103866993D01*
X206287054Y-103844471D01*
X206297282Y-103822847D01*
X206309579Y-103802330D01*
X206323829Y-103783117D01*
X206339893Y-103765393D01*
X206357617Y-103749329D01*
X206376830Y-103735079D01*
X206397347Y-103722782D01*
X206418971Y-103712554D01*
X206441493Y-103704496D01*
X206464697Y-103698684D01*
X206488358Y-103695174D01*
X206512250Y-103694000D01*
X206999750Y-103694000D01*
X207023642Y-103695174D01*
X207023642Y-103695174D01*
G37*
D15*
X206756000Y-104394000D03*
G04 #@! TD*
M02*
